<svg width="24" height="12" viewBox="0 0 24 12" fill="none" xmlns="http://www.w3.org/2000/svg">
<path d="M6.66204 3.51122C7.02577 3.52586 7.23351 3.67649 7.39842 3.95776C7.69753 4.46854 8.13515 4.88509 8.64843 5.17993C9.19491 5.49404 9.74853 5.79708 10.3107 6.08228C10.5698 6.21363 10.7787 6.35141 10.9011 6.63768C11.0382 6.95822 11.1549 6.95572 11.3605 6.66802C11.4676 6.51811 11.5536 6.65731 11.6228 6.68373C12.3032 6.94644 12.9899 7.17631 13.7142 7.29338C14.5997 7.43652 15.4739 7.29517 16.3484 7.20486C17.1658 7.12063 17.9753 6.97606 18.7802 6.80366C19.2664 6.69979 19.6854 6.4228 20.2087 6.29573C20.1712 6.69622 20.3072 7.01033 20.0717 7.31195C19.9339 7.48828 19.7658 7.63355 20.1687 7.86128C19.5145 7.7956 18.7949 7.89091 18.2869 7.97907C18.2059 7.99299 18.1235 7.99942 18.0439 8.01762C17.9186 8.04618 17.8658 8.09472 17.8961 8.24C17.9257 8.38099 17.9943 8.41918 18.1206 8.40562C18.4708 8.36742 18.8459 8.3021 19.1968 8.27176C19.4677 8.24856 19.7222 8.23321 19.9849 8.30353C20.2555 8.37599 20.3511 8.72758 20.1466 8.89106C19.976 9.02741 19.9746 9.16234 19.9896 9.34652C20.0178 9.69668 19.9092 9.75843 19.583 9.60316C19.1854 9.41398 19.1664 9.42469 19.1011 9.86801C19.0929 9.92298 19.0822 9.97759 19.0672 10.0308C19.0383 10.1321 19.0397 10.2581 18.9084 10.2921C18.7745 10.3267 18.726 10.2228 18.6671 10.1336C18.6296 10.0772 18.58 10.0286 18.5343 9.97509C18.4319 10.0529 18.4665 10.1568 18.439 10.2396C18.3626 10.4716 18.2359 10.4805 18.081 10.3206C17.9664 10.2021 17.859 10.0782 17.7112 9.99829C17.5841 9.92976 17.451 9.79484 17.3885 10.0697C17.3642 10.1764 17.2297 10.2175 17.1601 10.1482C16.9663 9.9551 16.7046 9.81054 16.6443 9.50893C16.6286 9.42968 16.6336 9.33759 16.594 9.27334C16.4715 9.07595 16.2302 8.86572 16.3027 8.66726C16.3609 8.50842 16.6725 8.4538 16.8503 8.32388C17.255 8.02797 17.7141 7.85486 18.1795 7.6903C18.323 7.63962 18.5 7.58394 18.4215 7.37869C18.3512 7.19558 18.1863 7.25769 18.0574 7.30659C17.5859 7.48471 17.1087 7.64854 16.6953 7.95444C16.2242 8.30317 15.7198 8.47308 15.1608 8.14291C14.5119 7.75955 13.8362 7.96051 13.1712 8.06688C12.9996 8.09436 12.8468 8.23928 12.654 8.34779C12.6076 8.11828 12.7411 7.91696 12.663 7.71529C12.6148 7.59107 12.5848 7.45258 12.417 7.46793C12.235 7.48435 12.2443 7.6232 12.2582 7.75919C12.2771 7.9448 12.2964 8.1322 12.1104 8.34922C12.2564 7.83629 12.0376 7.49327 11.7731 7.16703C11.6774 7.04924 11.5725 6.89218 11.4026 7.03389C11.2566 7.15596 11.3555 7.29446 11.4529 7.40011C11.7499 7.72172 11.8634 8.07723 11.645 8.54589C11.524 7.81024 10.8886 7.39904 10.6659 6.74905C10.6266 6.63483 10.5477 6.56951 10.4235 6.6102C10.3029 6.64982 10.2707 6.75048 10.2936 6.86541C10.34 7.10171 10.4521 7.3173 10.6141 7.48292C11.2098 8.09222 11.3319 8.82038 11.2159 9.62565C11.1713 9.93511 11.0988 10.2314 10.8583 10.4423C10.744 10.5426 10.6801 10.6479 10.6441 10.7879C10.5595 11.1155 10.3261 11.2801 10.0116 11.1883C9.58719 11.0645 9.10389 11.2929 8.71946 10.9553C8.66128 10.9042 8.59382 10.9902 8.53421 11.0216C8.23937 11.1762 8.15192 11.1373 8.10909 10.8003C8.08981 10.649 8.08303 10.5408 7.886 10.6262C7.77892 10.6726 7.64613 10.7104 7.57189 10.5783C7.50086 10.452 7.5469 10.3138 7.63971 10.221C7.80854 10.0518 7.87458 9.80447 8.03484 9.65099C8.40107 9.30011 8.38929 8.82895 8.51422 8.40062C8.53314 8.3353 8.54741 8.24856 8.51993 8.19324C8.22545 7.595 8.3229 6.95465 8.30541 6.32643C8.30291 6.23184 8.30398 6.13546 8.2383 6.05979C8.18833 6.00197 8.11873 5.98805 8.04555 6.01303C7.9424 6.04837 7.89992 6.13261 7.89921 6.23148C7.89599 6.89718 7.83246 7.57037 8.11052 8.20537C8.14407 8.28176 8.19797 8.35493 8.13336 8.4306C8.07982 8.49378 7.99844 8.46951 7.93597 8.44274C7.6265 8.30889 7.31989 8.53055 6.97937 8.45809C7.16819 8.14612 7.41769 7.90697 7.55583 7.59714C7.6033 7.49042 7.65042 7.38191 7.67969 7.26983C7.71181 7.14525 7.68647 7.0296 7.53869 6.99498C7.41234 6.96535 7.33988 7.03389 7.30525 7.15132C7.17497 7.59357 6.8655 7.91839 6.5853 8.26498C6.43931 8.44559 6.27048 8.52912 6.02169 8.5077C6.04668 8.36278 6.16518 8.29675 6.24264 8.20716C6.66776 7.71707 7.03969 7.19665 7.21673 6.55987C7.23886 6.47991 7.25528 6.39817 7.26778 6.31608C7.28812 6.18579 7.30168 6.03552 7.13035 6.00661C6.98329 5.98198 6.92297 6.07621 6.89691 6.20792C6.73308 7.03996 6.22122 7.66175 5.65689 8.25392C5.53768 8.3792 5.41881 8.45487 5.26569 8.32995C4.47042 7.68138 3.42529 7.60821 2.54186 7.15775C2.26416 7.01604 2.04714 6.85435 1.9015 6.59164C1.83618 6.47349 1.68698 6.3432 1.77657 6.2147C1.88473 6.05979 2.08212 5.99197 2.27879 6.01732C2.40408 6.03338 2.52472 6.09049 2.64501 6.13582C3.09797 6.30644 3.55058 6.446 4.0503 6.39853C4.32943 6.37176 4.6057 6.32964 4.87483 6.41602C5.01333 6.46064 5.17681 6.44565 5.23106 6.24933C5.28318 6.06122 5.11791 6.073 4.98085 6.03338C4.6878 5.94843 4.39475 5.98126 4.08563 6.00946C3.62482 6.05087 3.19007 5.95092 2.78672 5.75675C2.31663 5.53045 1.89544 5.59006 1.50101 5.88846C1.25865 6.07193 1.13586 5.96984 1.06019 5.74425C0.95168 5.42015 0.898495 5.0807 0.919198 4.74018C0.939901 4.40429 1.18334 4.20191 1.47032 4.11945C2.21169 3.90636 2.88666 3.56833 3.53523 3.15999C3.76439 3.01579 4.04744 2.99651 4.31158 2.94083C4.6239 2.87515 4.89589 2.89728 5.01261 3.266C5.05438 3.39807 5.17217 3.33775 5.29603 3.32668C5.54089 3.30527 5.77968 3.43876 6.02847 3.34667C6.10557 3.31812 6.17803 3.46589 6.18196 3.54371C6.18767 3.65364 6.09058 3.62723 6.02811 3.62687C5.65725 3.62652 5.28603 3.61902 4.91517 3.62009C4.8527 3.62045 4.79059 3.62473 4.72849 3.63044C4.57928 3.64472 4.26839 3.64294 4.31943 3.89636C4.34834 4.0395 4.46792 4.06234 4.59606 4.04664C5.11291 3.98346 5.62941 4.03985 6.14626 4.0395C6.35971 4.03914 6.44931 4.12481 6.45894 4.31791C6.51605 5.44514 6.26191 6.4585 5.36741 7.22985C5.25569 7.32622 5.1197 7.41439 5.23285 7.57073C5.35563 7.74028 5.51305 7.61606 5.63262 7.53182C5.86927 7.36513 6.06988 7.15132 6.21515 6.90111C6.83409 5.83956 7.08645 4.72661 6.66204 3.51122ZM10.1172 10.1557C10.1083 9.95867 9.94913 9.9137 9.82098 9.90299C9.40765 9.86765 9.1096 9.62743 8.8087 9.38542C8.69983 9.29797 8.59096 9.16234 8.44997 9.3019C8.29184 9.4586 8.44783 9.56497 8.54242 9.68311C8.88401 10.1097 9.44155 10.0818 9.87488 10.317C9.98839 10.3781 10.1015 10.2974 10.1172 10.1557ZM2.90523 5.32378C3.11047 5.30129 3.31785 5.24703 3.2975 5.01002C3.27609 4.76195 3.06121 4.67593 2.83277 4.67735C2.63181 4.67843 2.43335 4.74303 2.45012 4.98611C2.46833 5.24846 2.69106 5.29843 2.90523 5.32378ZM7.3513 5.20384C7.36237 5.11675 7.3745 5.05893 7.37593 5.0011C7.37878 4.87617 7.35201 4.75945 7.20174 4.74517C7.05361 4.73125 6.999 4.83441 6.98044 4.96112C6.97223 5.01859 6.96652 5.07784 6.97151 5.13531C6.98686 5.31378 6.83159 5.59934 7.12143 5.62646C7.41448 5.65395 7.3049 5.34448 7.3513 5.20384ZM17.1783 8.65369C17.24 8.6901 17.3164 8.69224 17.3832 8.66583C17.5509 8.59944 17.7369 8.53519 17.7894 8.31602C17.8183 8.19574 17.7223 8.09401 17.6066 8.12613C17.3996 8.18324 17.1708 8.2532 17.1037 8.49164C17.0848 8.55946 17.1162 8.61693 17.1783 8.65369Z" fill="#262626"/>
<path d="M21.0055 6.88363C21.1318 6.66054 21.4242 6.34215 21.5077 6.16296C21.5698 6.03018 21.663 5.85706 21.4663 5.76533C21.2625 5.67038 21.215 5.85349 21.1522 5.99306C21.0173 6.29253 20.761 6.66696 20.4918 6.94645C20.4397 6.66197 20.4693 6.3425 20.5439 6.1933C20.776 5.72821 21.4616 5.4066 21.8896 5.12533C22.0117 5.04502 22.0592 5.15174 22.1016 5.23027C22.3579 5.70322 22.7263 6.0698 23.1603 6.38248C23.3003 6.4835 23.4134 6.62699 23.5233 6.76369C24.0791 7.45295 24.1494 8.18932 23.7318 8.87965C23.3135 9.57176 22.5782 9.88337 21.7269 9.71525C21.5213 9.67456 21.3228 9.59675 21.1226 9.53143C21.0322 9.5018 20.9955 9.42756 21.0108 9.33725C21.0265 9.24659 21.0861 9.19447 21.1818 9.19055C21.2403 9.18805 21.2996 9.18876 21.3578 9.18341C22.1263 9.1138 22.6192 8.58874 22.6399 7.81061C22.6442 7.64927 22.6606 7.44081 22.4329 7.43332C22.2187 7.42654 22.2359 7.62 22.233 7.77349C22.2323 7.81953 22.2237 7.86558 22.2134 7.95945C22.0103 7.83167 21.8325 7.71388 21.6494 7.60537C21.4706 7.49971 21.286 7.40369 21.0704 7.28483C21.2468 7.17953 21.3995 7.10172 21.537 7.00213C21.6558 6.91611 21.8222 6.81509 21.6869 6.63769C21.5702 6.48457 21.4384 6.5763 21.3232 6.67125C21.2982 6.69124 21.0804 6.84936 21.0055 6.88363Z" fill="#262626"/>
<path d="M12.9146 4.03237C12.9299 4.21549 12.8564 4.29544 12.6754 4.35755C12.1561 4.53566 11.6556 4.55637 11.1377 4.34399C10.7915 4.20192 10.4384 4.07771 10.0986 3.91851C9.47363 3.62582 9.25126 3.04579 9.03352 2.4604C8.99354 2.35296 9.03067 2.27979 9.13632 2.23981C9.94551 1.93248 10.7765 1.67941 11.5525 1.28892C11.6592 1.23537 11.7245 1.26464 11.7752 1.37101C12.1468 2.14986 12.6461 2.87053 12.8492 3.72576C12.8732 3.82749 12.8928 3.93029 12.9146 4.03237ZM12.432 3.25174C12.4106 3.12717 12.3781 3.00438 12.3342 2.88588C12.2139 2.55963 12.0525 2.25694 11.9026 1.94997C11.8416 1.82504 11.7477 1.72331 11.5978 1.79899C11.4447 1.87609 11.4868 2.00387 11.5471 2.13094C11.6924 2.4372 11.8634 2.73667 11.9626 3.05792C12.0479 3.33384 12.1503 3.52694 12.1418 3.91851C12.1396 4.02238 12.1507 4.1316 12.2624 4.18408C12.3285 4.21513 12.4048 4.21049 12.4605 4.15802C12.5558 4.06807 12.5333 3.94385 12.5316 3.8332L12.432 3.25174Z" fill="#262626"/>
<path d="M12.2803 1.37779C12.7611 1.35352 13.2408 1.33603 13.7195 1.30284C13.9412 1.28749 14.175 1.27964 14.3777 1.20254C14.6965 1.08153 14.8285 1.19754 14.8317 1.4938C14.8389 2.1727 14.8646 2.85482 14.6736 3.51838C14.634 3.65651 14.5658 3.81393 14.7432 3.8821C14.9452 3.95992 14.9999 3.78251 15.0545 3.63831C15.1851 3.29422 15.1562 2.92193 15.2579 2.46397C15.5192 3.05899 15.7601 3.56942 15.864 4.11983C15.9304 4.47248 15.5802 4.76446 15.2233 4.74126C14.6186 4.70236 14.0529 4.50318 13.4779 4.34042C13.3854 4.31436 13.3008 4.29865 13.2972 4.16873C13.273 3.27851 12.8368 2.53607 12.432 1.78221C12.3678 1.66192 12.2682 1.55127 12.2803 1.37779ZM14.2039 1.63051C14.2132 1.60017 14.2121 1.56769 14.2032 1.53699C14.1921 1.49844 14.1732 1.45596 14.1218 1.4267C14.0379 1.37922 13.9604 1.39386 13.894 1.44954C13.5978 1.69904 13.3179 1.96354 13.1512 2.32262C13.0959 2.44148 13.0927 2.55892 13.2223 2.62495C13.3522 2.69134 13.4422 2.62352 13.5025 2.50181C13.6342 2.23481 13.8444 2.03136 14.0547 1.8279C14.1114 1.77257 14.176 1.72224 14.2039 1.63051Z" fill="#262626"/>
<path d="M17.9235 3.08934C18.1745 3.47341 18.2744 3.89211 18.3876 4.30652C18.4286 4.45715 18.3379 4.50034 18.2276 4.56673C17.5962 4.94866 16.9077 4.9176 16.2131 4.87013C16.0228 4.85728 16.0264 4.7634 16.1124 4.64668C16.3423 4.33364 16.283 4.01739 16.1642 3.68258C15.9293 3.02081 15.6659 2.37117 15.3725 1.73367C15.2518 1.47168 15.31 1.37066 15.5977 1.37745C15.8954 1.38459 16.1956 1.31605 16.519 1.38137C16.4051 1.55378 16.233 1.59125 16.116 1.69905C16.0321 1.77615 15.9718 1.8611 16.0535 1.97247C16.1277 2.07384 16.2241 2.08705 16.3309 2.02101C16.6293 1.8354 16.9287 1.65086 17.2253 1.4624C17.3285 1.39672 17.4449 1.33675 17.5544 1.38851C17.6901 1.45312 17.6166 1.59768 17.6094 1.70191C17.5634 2.37867 17.4895 3.05293 17.5455 3.73398C17.528 4.04809 17.5102 3.99026 17.3606 4.16731C17.2732 4.27082 17.1814 4.38076 17.3103 4.50033C17.4327 4.61384 17.547 4.53924 17.6455 4.4393C17.9332 4.14625 18.0049 3.99098 17.9271 3.54266C17.9021 3.39631 17.9235 3.24104 17.9235 3.08934Z" fill="#262626"/>
<path d="M10.7748 4.61707C11.5376 5.08894 12.3104 4.84872 13.0953 4.69738C13.4986 4.61956 14.054 5.15177 14.0883 5.56653C14.104 5.75821 13.9491 5.85637 13.8281 5.95774C13.6129 6.13728 13.4344 6.32004 13.4822 6.63486C13.5004 6.75586 13.4779 6.85224 13.2891 6.80798C12.2554 6.5649 11.2985 6.13121 10.3522 5.66612C10.2665 5.624 10.2169 5.56689 10.2405 5.47444C10.3169 5.17568 10.4711 4.91476 10.6481 4.66597C10.6781 4.6242 10.7252 4.61849 10.7748 4.61707Z" fill="#262626"/>
<path d="M4.87553 8.6476C4.87732 8.65438 4.87018 8.6601 4.86375 8.65688C4.26302 8.35741 3.94498 8.65474 3.59589 9.01668C3.275 9.34935 2.79027 9.45751 2.37408 9.65454C2.22773 9.72378 2.09031 9.58065 1.98394 9.46857C1.88971 9.36934 1.80654 9.28939 1.74408 9.4932C1.71695 9.58172 1.63557 9.64776 1.55739 9.61742C1.27898 9.50962 0.979505 9.42003 0.745708 9.24655C0.606143 9.14268 0.549389 9.12662 0.405185 9.19908C0.0957157 9.35399 0.00897868 9.29581 0.000412064 8.96742C-0.0167212 8.31922 0.50263 7.7863 1.14798 7.77595C1.28719 7.77381 1.501 8.0151 1.59345 8.09363C1.82831 8.29209 1.80297 8.24926 1.99429 8.41274C2.29377 8.66902 2.66677 8.7322 1.85259 7.70171C1.8301 7.67351 1.87365 7.63603 1.90541 7.65352C2.08388 7.75239 2.43405 8.0126 2.51507 8.08078C2.62858 8.17572 2.87451 8.30744 3.16292 8.32707C3.32604 8.33813 3.17327 8.08221 3.06119 7.99868C2.89093 7.87161 2.70389 7.77381 2.50294 7.70563C2.41834 7.67672 2.33267 7.65388 2.29341 7.56964C2.28234 7.54572 2.29912 7.51788 2.32553 7.51681C2.80955 7.49718 4.7995 8.35884 4.87553 8.6476Z" fill="#262626"/>
<path d="M14.2657 5.02606C15.0353 5.11565 15.7192 5.19882 16.4042 5.27449C17.0281 5.34338 17.0292 5.33981 16.9863 5.95375C16.9688 6.20361 17.0217 6.44134 17.1209 6.69405C16.1482 6.83933 15.1877 6.96247 14.2147 6.9382C14.1087 6.9357 13.9423 6.99067 13.9102 6.84647C13.8767 6.6962 13.8502 6.52129 13.9637 6.37673C13.9852 6.3496 14.013 6.32605 14.0408 6.30534C14.476 5.97981 14.6334 5.58789 14.2657 5.02606Z" fill="#262626"/>
<path d="M17.7912 6.57947C17.5802 6.60482 17.4624 6.50023 17.4114 6.30249C17.37 6.14115 17.4289 5.96696 17.4064 5.82561C17.3182 5.26842 17.7298 5.20025 18.0803 5.0539C18.4158 4.91362 18.7549 4.78048 19.0815 4.62165C19.2782 4.52599 19.427 4.55525 19.5976 4.67733C19.9314 4.91648 20.2823 5.13243 20.5839 5.4137C20.6731 5.49687 20.772 5.58682 20.5846 5.6682C19.6829 6.05977 18.7963 6.49988 17.7912 6.57947Z" fill="#262626"/>
<path d="M8.1747 4.25619C8.03621 4.21372 7.96839 4.1227 7.93984 4.02775C7.77671 3.4802 7.54149 2.95121 7.48402 2.37582C7.43119 1.84897 7.16955 1.62624 6.64628 1.67693C5.7068 1.76759 5.51727 1.95035 5.38377 2.89125C4.98578 2.65673 4.96008 2.49718 5.14141 2.07099C5.36021 1.55735 5.6347 1.14508 6.25721 1.0994C6.49565 1.08191 6.80226 1.07976 6.96752 1.26252C7.22274 1.5445 7.52864 1.71976 7.902 1.85147C8.60696 2.10062 8.66336 2.74312 8.94499 3.27567C8.99496 3.36991 8.92393 3.42844 8.85468 3.47842C8.56627 3.6858 8.31962 3.93138 8.1747 4.25619Z" fill="#262626"/>
<path d="M19.7892 2.78556C20.1879 3.69683 20.0358 3.92599 18.7894 4.29185C18.6309 3.65507 18.4646 3.02114 18.1051 2.45895C18.0687 2.4022 18.0591 2.32724 18.043 2.25942C17.9442 1.84608 17.9784 1.80075 18.3911 1.88678C18.7177 1.95495 19.046 1.96031 19.3734 1.94389C19.67 1.92925 19.685 2.02777 19.56 2.25764C19.4373 2.48358 19.3441 2.72488 19.2345 2.95796C19.1756 3.08325 19.1317 3.21282 19.2848 3.29277C19.464 3.38665 19.5329 3.24244 19.6039 3.11751C19.665 3.00793 19.6778 2.87051 19.7892 2.78556Z" fill="#262626"/>
<path d="M10.8042 1.18432C10.7685 1.19681 10.73 1.17397 10.7236 1.13685C10.6872 0.928392 10.6286 0.745281 10.4259 0.610357C10.2667 0.504345 10.372 0.278758 10.5744 0.252701C11.1915 0.173103 11.8119 0.112779 12.4247 0.00748115C12.701 -0.0399922 12.7453 0.148117 12.8288 0.29946C12.9323 0.487212 13.0244 0.759916 12.8652 0.886987C12.6718 1.04119 12.3402 1.01335 12.1192 0.936959C11.6584 0.777763 11.2965 0.943741 10.9188 1.13899C10.8842 1.15684 10.8471 1.16969 10.8042 1.18432Z" fill="#262626"/>
<path d="M10.2675 4.50493C10.1044 4.76693 9.96874 5.04963 9.83989 5.33696C9.80491 5.41478 9.7146 5.32876 9.66177 5.29913C9.34552 5.12316 9.03569 4.93576 8.71873 4.76193C8.4835 4.63308 8.49528 4.46246 8.61236 4.26578C8.72837 4.07053 8.9047 3.9349 9.08281 3.80176C9.15241 3.75 9.22023 3.71181 9.29162 3.8014C9.51792 4.08553 9.83774 4.23223 10.1551 4.38214C10.2061 4.40642 10.2675 4.42319 10.2675 4.50493Z" fill="#262626"/>
<path d="M20.3214 2.96866C20.1687 2.67062 20.1669 2.40362 20.1651 2.13342C20.1622 1.67653 20.0673 1.57659 19.6029 1.56945C19.1446 1.56231 18.6913 1.54054 18.2376 1.45594C17.9799 1.40775 17.9788 1.25605 17.9999 1.07829C18.0249 0.864486 18.1548 0.828079 18.3504 0.890187C18.8473 1.04831 19.3645 1.06259 19.8799 1.10257C20.4681 1.1479 20.5784 1.26462 20.4364 1.79825C20.3354 2.17661 20.5156 2.56425 20.3214 2.96866Z" fill="#262626"/>
<path d="M19.916 4.39714C20.0427 4.24759 20.1869 4.09517 20.3097 3.92705C20.404 3.79748 20.5043 3.79213 20.6413 3.83889C21.0422 3.97595 21.398 4.20047 21.7628 4.40714C21.9352 4.50458 21.8753 4.63237 21.7621 4.71268C21.5347 4.87402 21.291 5.01251 21.0525 5.15815C20.9651 5.21169 20.9033 5.15886 20.8355 5.10568C20.5143 4.85439 20.1898 4.60774 19.916 4.39714Z" fill="#262626"/>
<path d="M8.07471 1.58587C8.55372 1.32852 8.97492 1.10115 9.39754 0.875203C9.70344 0.711723 9.96079 0.788108 10.2178 0.911611C10.3595 0.979787 10.307 1.4124 10.1336 1.46487C9.68345 1.60087 9.25583 1.80325 8.80537 1.9239C8.54694 1.99315 8.36954 1.69439 8.07471 1.58587Z" fill="#262626"/>
<path d="M15.5325 0.986552C15.6738 0.596414 15.8698 0.390458 16.2635 0.381177C16.6369 0.372253 17.0009 0.245182 17.3796 0.246967C17.5749 0.248038 17.7969 0.236258 17.7744 0.503965C17.7569 0.714204 17.7013 0.959067 17.4143 0.988693C17.2397 1.0069 17.0602 1.02046 16.8871 1.00012C16.4552 0.94943 16.024 0.929441 15.5325 0.986552Z" fill="#262626"/>
<path d="M7.23771 3.2246C6.99285 3.15642 6.80081 3.10931 6.61306 3.04863C6.47742 3.00472 6.34143 2.9933 6.20079 2.98045C6.06729 2.96796 5.84742 3.20818 5.81208 2.92584C5.77924 2.66349 5.77246 2.34617 6.09799 2.20196C6.20329 2.15556 6.32287 2.14021 6.43673 2.11522C6.96893 1.99922 7.04889 2.05918 7.11385 2.5871C7.13812 2.78021 7.18774 2.97046 7.23771 3.2246Z" fill="#262626"/>
<path d="M13.7338 0.908375C13.3705 0.936931 13.2241 0.763813 13.2941 0.40116C13.3141 0.29729 13.3826 0.307284 13.4465 0.307641C14.0122 0.311924 14.5712 0.241607 15.1309 0.17236C15.3843 0.140949 15.4718 0.229471 15.3397 0.469693C15.2833 0.572136 15.2255 0.673864 15.1709 0.777377C15.1391 0.837344 15.0584 0.978693 14.9692 0.911588C14.6879 0.699207 14.4709 0.778448 14.1879 0.855191C14.0426 0.894454 13.8855 0.891956 13.7338 0.908375Z" fill="#262626"/>
<path d="M9.65173 0.174548C9.72169 0.181687 9.91587 0.213812 9.98262 0.23273C10.0644 0.255574 10.0786 0.327676 10.0654 0.40192C10.0512 0.481161 10.0051 0.620726 9.948 0.603236C9.61461 0.500436 9.23804 0.649281 8.97247 0.796698C8.59376 1.00694 8.20933 1.15221 7.79849 1.29642C7.70104 1.33068 7.59539 1.35638 7.49295 1.35746C7.3955 1.35853 7.29163 1.22539 7.27057 1.13794C7.23559 0.993374 7.38622 1.02443 7.45832 0.999799C8.04657 0.79884 8.61018 0.539343 9.17914 0.292339C9.32942 0.227019 9.47897 0.154916 9.65173 0.174548Z" fill="#262626"/>
<path d="M21.2335 3.19678C21.4095 3.22105 21.6511 3.2546 21.8928 3.28815C22.1062 3.31778 22.1458 3.47805 22.063 3.61761C21.9838 3.75111 21.9195 4.01168 21.6693 3.8896C21.3666 3.74219 21.0775 3.56835 20.7538 3.4652C20.7156 3.45306 20.6674 3.4138 20.6592 3.37882C20.6435 3.31421 20.6999 3.2803 20.7541 3.25389C20.8855 3.18964 21.0268 3.20677 21.2335 3.19678Z" fill="#262626"/>
<path d="M21.6979 3.02152C21.5333 3.00617 21.4148 2.99011 21.2956 2.9844C20.7516 2.95941 20.5771 2.73061 20.6884 2.20091C20.7088 2.10454 20.7338 2.03922 20.8394 2.04421C20.9204 2.04778 21.0539 2.03386 21.0511 2.13202C21.0379 2.59212 21.4377 2.58534 21.7022 2.73133C21.8017 2.7863 21.9609 2.80272 21.9145 2.96441C21.8746 3.10433 21.7439 3.01759 21.6979 3.02152Z" fill="#262626"/>
</svg>
