<svg width="120" height="85" viewBox="0 0 120 85" fill="none" xmlns="http://www.w3.org/2000/svg">
<path d="M5 85C3.58333 85 2.39667 84.52 1.44 83.56C0.48 82.6033 0 81.4167 0 80C0 78.5833 0.48 77.3967 1.44 76.44C2.39667 75.48 3.58333 75 5 75H10V10C10 7.25 10.98 4.895 12.94 2.935C14.8967 0.978333 17.25 0 20 0H100C102.75 0 105.105 0.978333 107.065 2.935C109.022 4.895 110 7.25 110 10V75H115C116.417 75 117.603 75.48 118.56 76.44C119.52 77.3967 120 78.5833 120 80C120 81.4167 119.52 82.6033 118.56 83.56C117.603 84.52 116.417 85 115 85H5ZM52.5 75H67.5C68.1667 75 68.75 74.75 69.25 74.25C69.75 73.75 70 73.1667 70 72.5C70 71.8333 69.75 71.25 69.25 70.75C68.75 70.25 68.1667 70 67.5 70H52.5C51.8333 70 51.25 70.25 50.75 70.75C50.25 71.25 50 71.8333 50 72.5C50 73.1667 50.25 73.75 50.75 74.25C51.25 74.75 51.8333 75 52.5 75ZM20 60H100V10H20V60Z" fill="#262626"/>
</svg>
