<svg width="24" height="17" viewBox="0 0 24 17" fill="none" xmlns="http://www.w3.org/2000/svg">
<path d="M1 17C0.716667 17 0.479333 16.904 0.288 16.712C0.096 16.5207 0 16.2833 0 16C0 15.7167 0.096 15.4793 0.288 15.288C0.479333 15.096 0.716667 15 1 15H2V2C2 1.45 2.196 0.979 2.588 0.587C2.97933 0.195667 3.45 0 4 0H20C20.55 0 21.021 0.195667 21.413 0.587C21.8043 0.979 22 1.45 22 2V15H23C23.2833 15 23.5207 15.096 23.712 15.288C23.904 15.4793 24 15.7167 24 16C24 16.2833 23.904 16.5207 23.712 16.712C23.5207 16.904 23.2833 17 23 17H1ZM10.5 15H13.5C13.6333 15 13.75 14.95 13.85 14.85C13.95 14.75 14 14.6333 14 14.5C14 14.3667 13.95 14.25 13.85 14.15C13.75 14.05 13.6333 14 13.5 14H10.5C10.3667 14 10.25 14.05 10.15 14.15C10.05 14.25 10 14.3667 10 14.5C10 14.6333 10.05 14.75 10.15 14.85C10.25 14.95 10.3667 15 10.5 15ZM4 12H20V2H4V12Z" fill="#262626"/>
</svg>
