<svg width="120" height="120" viewBox="0 0 120 120" fill="none" xmlns="http://www.w3.org/2000/svg">
<path d="M106.667 0C110.203 0 113.594 1.40476 116.095 3.90524C118.595 6.40573 120 9.79711 120 13.3333V106.667C120 110.203 118.595 113.594 116.095 116.095C113.594 118.595 110.203 120 106.667 120H13.3333C9.79711 120 6.40573 118.595 3.90524 116.095C1.40476 113.594 0 110.203 0 106.667V13.3333C0 9.79711 1.40476 6.40573 3.90524 3.90524C6.40573 1.40476 9.79711 0 13.3333 0H106.667ZM103.333 103.333V68C103.333 62.236 101.044 56.708 96.9678 52.6322C92.892 48.5564 87.364 46.2667 81.6 46.2667C75.9333 46.2667 69.3333 49.7333 66.1333 54.9333V47.5333H47.5333V103.333H66.1333V70.4667C66.1333 65.3333 70.2667 61.1333 75.4 61.1333C77.8754 61.1333 80.2493 62.1167 81.9997 63.867C83.75 65.6173 84.7333 67.9913 84.7333 70.4667V103.333H103.333ZM25.8667 37.0667C28.8371 37.0667 31.6859 35.8867 33.7863 33.7863C35.8867 31.6859 37.0667 28.8371 37.0667 25.8667C37.0667 19.6667 32.0667 14.6 25.8667 14.6C22.8786 14.6 20.0128 15.787 17.8999 17.8999C15.787 20.0128 14.6 22.8786 14.6 25.8667C14.6 32.0667 19.6667 37.0667 25.8667 37.0667ZM35.1333 103.333V47.5333H16.6667V103.333H35.1333Z" fill="#0A66C2"/>
</svg>
