<svg width="120" height="57" viewBox="0 0 120 57" fill="none" xmlns="http://www.w3.org/2000/svg">
<path fill-rule="evenodd" clip-rule="evenodd" d="M53.618 5.68429C53.65 5.86989 53.8425 5.98409 54.021 5.92164C54.2355 5.84849 54.421 5.78424 54.594 5.69499C56.4825 4.71873 58.292 3.88884 60.596 4.68482C61.701 5.06678 63.359 5.20598 64.326 4.43496C65.122 3.7996 64.6615 2.43608 64.144 1.49731C64.085 1.39043 64.03 1.27989 63.975 1.16952L63.975 1.16946L63.975 1.16936L63.9749 1.16923C63.6407 0.498215 63.3097 -0.166408 62.1235 0.037406C59.9788 0.405925 57.8156 0.664273 55.6524 0.922612C54.725 1.03335 53.7978 1.1441 52.8719 1.26351C51.8599 1.3938 51.3334 2.52174 52.1294 3.0518C53.143 3.72643 53.436 4.64199 53.618 5.68429ZM39.6982 20.1389C39.8409 20.6136 40.18 21.0687 40.8725 21.2811C41.5971 19.657 42.8303 18.4291 44.2724 17.3922C44.6186 17.1423 44.9738 16.8496 44.7239 16.3784C44.3714 15.7119 44.0895 15.0109 43.8096 14.3149L43.8095 14.3146L43.8095 14.3145C42.9713 12.2303 42.1513 10.1912 39.5089 9.25739C37.6421 8.59884 36.1126 7.72253 34.8365 6.31262C34.0102 5.39882 32.4772 5.40957 31.2849 5.49702C28.1724 5.72542 26.7999 7.78678 25.7059 10.355C24.7993 12.486 24.9278 13.2837 26.9177 14.4563C27.5852 9.75179 28.5329 8.83799 33.2303 8.38468C35.8467 8.13123 37.1549 9.24489 37.419 11.8792C37.6235 13.9266 38.2782 15.8566 38.9327 17.7862L38.9327 17.7862L38.9327 17.7862L38.9327 17.7863L38.9327 17.7863L38.9328 17.7863L38.9328 17.7863L38.9328 17.7864L38.9328 17.7864L38.9328 17.7864L38.9328 17.7865L38.9328 17.7865L38.9328 17.7865L38.9328 17.7865C39.1979 18.5681 39.463 19.3496 39.6982 20.1389ZM63.5598 6.78639C62.841 6.81966 62.1218 6.85296 61.402 6.88929C61.3546 7.56946 61.6505 8.05647 61.9353 8.52501C62.0137 8.65399 62.0912 8.78158 62.1605 8.9114C62.3038 9.17826 62.4479 9.44483 62.592 9.71139L62.593 9.7133L62.593 9.71334C64.4837 13.2114 66.3741 16.7088 66.4865 20.8441C66.5035 21.4571 66.8811 21.5616 67.3123 21.6809L67.39 21.7025C67.9237 21.8536 68.4557 22.0109 68.9877 22.1682L68.9881 22.1683C71.322 22.8585 73.6549 23.5484 76.1171 23.7067C77.9016 23.8227 79.6526 22.3628 79.3206 20.5996C78.8525 18.1198 77.8283 15.8024 76.6744 13.1916L76.6742 13.1913L76.6737 13.1901C76.5472 12.9039 76.4192 12.6141 76.2901 12.3202C76.0729 13.2985 75.9748 14.1986 75.8828 15.0429C75.7595 16.1749 75.6471 17.2065 75.2731 18.192L75.2334 18.2975C74.9719 18.9957 74.6778 19.7812 73.7166 19.4109C72.9133 19.1022 73.1172 18.4275 73.3099 17.7899C73.33 17.7235 73.3499 17.6575 73.3686 17.5923C74.2486 14.5352 74.2086 11.3993 74.1687 8.26985V8.26974V8.26892V8.26808V8.26724V8.26638V8.26552C74.1653 8.00007 74.1619 7.73466 74.1591 7.46934C74.1431 5.98803 73.4831 5.40798 71.8891 6.01303C70.9812 6.35837 69.9485 6.42585 68.9463 6.49133C68.8297 6.49895 68.7135 6.50654 68.5981 6.51454C66.9212 6.6308 65.2418 6.70854 63.5598 6.78639ZM71.0166 7.68529C71.0611 7.8388 71.0666 8.0012 71.0201 8.1529C70.9002 8.54698 70.6449 8.78824 70.3955 9.02385C70.3547 9.06245 70.314 9.10091 70.2741 9.13985C69.2226 10.1572 68.1715 11.1744 67.513 12.5094C67.2115 13.118 66.7615 13.4571 66.112 13.1251C65.464 12.795 65.48 12.2078 65.7565 11.6135C66.59 9.81806 67.9895 8.49555 69.4706 7.24804C69.8026 6.96964 70.1901 6.89644 70.6096 7.13384C70.8666 7.28014 70.9611 7.49254 71.0166 7.68529ZM64.5724 20.1617C64.6489 21.0773 64.2814 21.477 63.3764 21.7876C60.7799 22.6781 58.2774 22.7817 55.6879 21.7198C55.1022 21.4794 54.5125 21.2493 53.9228 21.0192L53.9226 21.0191C52.7696 20.5691 51.6164 20.119 50.4923 19.5924C47.3675 18.1289 46.2556 15.2287 45.1669 12.3018C44.967 11.7646 45.1526 11.3987 45.6809 11.1988C46.8266 10.7637 47.9811 10.3503 49.1356 9.93688C52.058 8.89042 54.9806 7.84391 57.7619 6.44434C58.2954 6.17659 58.6219 6.32294 58.8754 6.8548C59.4353 8.02842 60.0533 9.17562 60.6712 10.3228L60.6712 10.3228C62.1037 12.9821 63.536 15.6412 64.2454 18.6286C64.325 18.9659 64.3949 19.3056 64.4648 19.645C64.5002 19.8174 64.5357 19.9898 64.5724 20.1617ZM62.1594 16.2585C62.0524 15.6357 61.8899 15.0217 61.6704 14.4292C61.1923 13.1326 60.5844 11.9104 59.9787 10.6928L59.9786 10.6927L59.9786 10.6927L59.9786 10.6926L59.9786 10.6925L59.9784 10.6922L59.9782 10.6918L59.978 10.6914L59.9778 10.6911L59.9776 10.6907L59.9775 10.6903L59.9773 10.6899L59.9771 10.6896L59.9769 10.6892L59.9767 10.6888L59.9765 10.6884L59.9764 10.6881L59.9762 10.6877L59.976 10.6873L59.9759 10.6871L59.9758 10.6869L59.9757 10.6867C59.8203 10.3744 59.6652 10.0625 59.5124 9.74961C59.2074 9.12496 58.7379 8.61631 57.9884 8.99471C57.2229 9.38021 57.4334 10.0191 57.7349 10.6545C57.924 11.053 58.1218 11.4493 58.3197 11.8458L58.3197 11.8459C58.8822 12.9727 59.4455 14.1012 59.8124 15.2894C59.8988 15.569 59.9888 15.8316 60.0769 16.0889C60.4237 17.1011 60.7423 18.0313 60.7084 19.5924C60.6974 20.1117 60.7529 20.6578 61.3114 20.9202C61.6419 21.0755 62.0234 21.0523 62.3019 20.7899C62.7078 20.4068 62.6863 19.8993 62.6658 19.4153C62.6622 19.3312 62.6587 19.2478 62.6574 19.1658L62.1594 16.2585ZM36.9914 19.7886C36.1668 18.3823 35.1281 17.6291 33.3095 17.5559C35.4315 23.6329 34.1697 29.1977 31.075 34.5055C30.3486 35.7565 29.3456 36.8256 28.1623 37.659L28.0778 37.7189C27.4917 38.1348 26.7488 38.6619 26.1635 37.8536C25.6506 37.1449 26.1615 36.7164 26.6777 36.2835C26.7309 36.2388 26.7841 36.1942 26.8363 36.1492C31.3088 32.2924 32.5795 27.2256 32.294 21.5894C32.2458 20.6239 31.7978 20.1955 30.7306 20.1973C29.8988 20.1979 29.0673 20.1691 28.2358 20.1402C26.4838 20.0795 24.732 20.0188 22.9795 20.233C22.3388 20.3115 21.7409 20.1973 21.5963 19.4816C21.3646 18.3309 22.6252 18.2325 23.4176 18.1707C23.4977 18.1645 23.5731 18.1586 23.6417 18.152C23.9522 18.1235 24.2627 18.1021 24.5751 18.1003C25.586 18.0973 26.5975 18.1072 27.6089 18.117C28.4527 18.1252 29.2964 18.1334 30.1398 18.1342C30.1882 18.1344 30.2409 18.1379 30.2951 18.1414C30.5904 18.1605 30.9332 18.1828 30.9091 17.7184C30.8894 17.3293 30.5271 16.5904 30.1416 16.7332C29.4038 17.0062 28.6836 16.8826 27.9642 16.7591C27.4707 16.6743 26.9776 16.5896 26.4794 16.6332C26.3433 16.6454 26.2088 16.6694 26.0794 16.6925C25.6197 16.7746 25.2252 16.8451 25.0623 16.3298C24.4787 14.4862 23.1187 14.3755 21.5571 14.7039C21.2559 14.7674 20.9498 14.8215 20.643 14.8756L20.643 14.8756L20.643 14.8756L20.643 14.8756L20.643 14.8756L20.6429 14.8756L20.6429 14.8756L20.6429 14.8756L20.6429 14.8756L20.6429 14.8756L20.6428 14.8756L20.6428 14.8756L20.6428 14.8756L20.6428 14.8756L20.6428 14.8756L20.6428 14.8756L20.6427 14.8756L20.6427 14.8756L20.6427 14.8756L20.6427 14.8757L20.6427 14.8757C19.6046 15.0588 18.5597 15.2432 17.6753 15.7997C14.4324 17.8415 11.0576 19.5316 7.3507 20.5971C5.91579 21.0094 4.69859 22.0213 4.59508 23.7007C4.49156 25.4034 4.75749 27.1006 5.30004 28.7211C5.67839 29.8491 6.29235 30.3595 7.50415 29.4422C9.47632 27.9502 11.5823 27.6521 13.9327 28.7836C15.9495 29.7545 18.1233 30.2542 20.4273 30.0472L20.6555 30.0262H20.6555C22.1175 29.8914 23.5105 29.763 24.9035 30.1668C25.0332 30.2043 25.1679 30.2326 25.2994 30.2602L25.2994 30.2602C25.8626 30.3784 26.3658 30.484 26.1545 31.2465C25.8833 32.2281 25.0659 32.3031 24.3734 32.08C23.1745 31.6952 21.9472 31.8204 20.7068 31.9469L20.7064 31.947C20.5547 31.9625 20.4028 31.978 20.2507 31.9925C17.7521 32.2299 15.489 31.5321 13.2242 30.679C13.0959 30.6306 12.9675 30.5796 12.8388 30.5285L12.8387 30.5284L12.8387 30.5284L12.8386 30.5284C12.3642 30.3398 11.8858 30.1496 11.3931 30.0865C10.4097 29.9597 9.42277 30.2988 8.88196 31.0734C8.54184 31.5612 8.89004 32.0542 9.22035 32.5219C9.32507 32.6702 9.428 32.8159 9.50662 32.9581C10.2348 34.2717 11.3199 35.0801 12.7084 35.7887C14.4561 36.6798 16.3303 37.2756 18.2036 37.8712C21.0651 38.7808 23.9245 39.6899 26.3277 41.6497C27.0933 42.2743 27.6876 41.896 28.2837 41.2696C31.1054 38.3087 33.6647 35.1997 34.4838 31.0395C34.6141 30.3809 34.9157 29.9098 35.651 30.0329C36.5077 30.1775 36.4399 30.9288 36.3382 31.5803C36.2757 31.9907 36.1936 32.3995 36.0829 32.7993C35.1977 35.9832 33.3381 38.5853 31.2125 41.0358C31.1074 41.1573 30.9871 41.2702 30.8653 41.3846L30.8652 41.3847C30.538 41.692 30.1987 42.0105 30.1077 42.5385C31.3517 42.6456 32.1958 42.2279 32.9258 41.3249C33.1305 41.0717 33.3383 40.8208 33.546 40.5701C34.7598 39.1048 35.9693 37.6447 36.5255 35.7565C36.6987 35.1694 37.061 34.8267 37.6927 34.9748C38.4316 35.1479 38.5583 35.7262 38.3977 36.3491C38.2514 36.9095 38.0158 37.452 37.7784 37.9856C37.3728 38.8955 36.7751 39.6834 36.1596 40.4948L36.1595 40.4948C35.727 41.065 35.2857 41.6467 34.8961 42.2904C35.6755 42.4563 36.4194 42.3139 37.1454 42.175C38.0053 42.0105 38.8401 41.8508 39.6792 42.2137C39.9915 42.3475 40.3984 42.4689 40.6661 42.153C40.9392 41.8331 40.7889 41.5222 40.6345 41.203C40.6062 41.1446 40.5779 41.0859 40.5519 41.0268C39.3702 38.3281 39.4224 35.4915 39.4745 32.6572V32.6569V32.6566V32.6563V32.6561V32.6558V32.6555V32.6552V32.6549V32.6546V32.6543V32.6541V32.6538V32.6535V32.6532V32.6529V32.6526V32.6523V32.6521V32.6518V32.6515C39.4837 32.1531 39.4929 31.6548 39.4954 31.1573C39.4989 30.6629 39.7113 30.2417 40.2271 30.065C40.593 29.9401 40.941 30.0097 41.1908 30.2988C41.5025 30.6579 41.5135 31.1102 41.5246 31.5596L41.5264 31.632C41.5462 32.3444 41.5365 33.0598 41.5268 33.7752C41.4936 36.2145 41.4605 38.6533 42.599 40.9662C42.7364 41.2428 42.665 41.6765 42.5704 42.0031C42.4046 42.5715 42.287 43.155 42.1694 43.7384C41.8439 45.3529 41.5186 46.9662 40.1735 48.2549C39.7724 48.639 39.4894 49.1407 39.2009 49.6521C38.9129 50.1624 38.6195 50.6824 38.1978 51.105C37.7338 51.569 37.5036 52.26 37.8587 52.8915C38.2299 53.552 38.8939 53.363 39.4293 53.131C40.383 52.7176 40.4452 53.2115 40.5357 53.9298L40.5448 54.0015C40.7589 55.6865 41.1962 55.881 42.6704 55.108C42.7516 55.0653 42.8357 55.0023 42.9209 54.9384C43.1487 54.7677 43.385 54.5906 43.5966 54.7765C44.7814 55.817 46.154 55.7823 47.5297 55.7475C48.3859 55.7258 49.2433 55.7041 50.0574 55.9416C51.6299 56.4006 52.7969 55.5775 53.2199 53.9395C53.3999 53.2395 53.7194 52.713 54.2909 52.2115C55.4934 51.157 55.8559 49.6756 56.0789 48.1283C56.6589 44.1019 56.0484 40.4611 53.0699 37.4145C52.2599 36.5864 51.6994 35.5085 51.4674 34.327C51.3529 33.7523 51.5139 33.249 52.1169 33.0509C52.7379 32.8475 53.1324 33.1741 53.3289 33.7452C53.8173 35.1705 54.7025 36.3662 55.5937 37.5698C56.7344 39.1106 57.8848 40.6643 58.2244 42.7294C59.3164 40.3861 58.7489 38.6085 57.2639 37.0005C56.7769 36.4722 56.2824 35.7797 57.0124 35.1694C57.8041 34.5091 58.3135 35.1461 58.7665 35.7126L58.7669 35.7132C58.7999 35.7543 58.8325 35.7952 58.8649 35.8351C60.1874 37.4663 61.2814 39.1814 60.5514 41.7461C61.4805 40.6621 61.3851 39.7259 61.2907 38.7988L61.2904 38.7959C61.2209 38.1159 61.1744 37.4217 62.0844 37.3396C62.8331 37.2711 63.0332 37.8151 63.2388 38.3744L63.239 38.3748C63.2545 38.4169 63.27 38.4592 63.2858 38.5013C63.2952 38.5264 63.3048 38.5514 63.3145 38.5764C63.5229 39.1148 63.4299 39.6526 63.3331 40.2117C63.2486 40.6998 63.1613 41.204 63.2695 41.7389C63.5848 41.5614 63.8787 41.3645 64.1615 41.175C64.7433 40.7851 65.2781 40.4268 65.8555 40.3344C66.3139 40.261 66.7733 40.1787 67.2333 40.0963C70.1095 39.581 73.0063 39.062 75.8035 40.7145C78.5985 42.3654 81.1206 41.5158 83.4761 39.7721C85.3569 38.3804 87.5019 37.5768 89.6492 36.7723L89.6493 36.7723C89.8618 36.6927 90.0743 36.6131 90.2866 36.5329C90.9311 36.2884 91.7556 35.9778 92.1071 36.8934C92.4888 37.8913 91.6625 38.1821 90.9568 38.4304L90.8971 38.4514C88.5701 39.2742 86.2746 40.1398 84.2511 41.6194C83.9102 41.8684 83.471 42.0622 83.0425 42.2511C82.3536 42.555 81.6925 42.8466 81.5131 43.3363C81.246 44.0672 81.8304 44.8302 82.4016 45.5758C82.6058 45.8424 82.8083 46.1068 82.9696 46.3667C83.1048 46.5861 83.136 46.8705 83.1672 47.1551L83.1673 47.1552L83.1673 47.1553V47.1554C83.1818 47.2873 83.1962 47.4192 83.2211 47.5446C83.4488 48.6838 84.2512 49.3749 85.0478 50.061C85.3057 50.2832 85.5631 50.5049 85.8001 50.741C86.1481 51.0875 86.8206 50.882 86.9421 50.3485C87.209 49.175 87.7332 49.4954 88.2764 49.8275C88.3693 49.8843 88.4628 49.9414 88.5556 49.9915C89.1982 50.3389 89.6881 50.8527 90.1817 51.3704C90.2558 51.448 90.3299 51.5257 90.4046 51.603C91.1791 52.4025 91.8126 52.358 92.1946 51.198C92.2379 51.0677 92.2504 50.927 92.2632 50.7832C92.2911 50.47 92.3203 50.1421 92.6711 49.8755C92.7404 49.9565 92.8114 50.0354 92.882 50.1137L92.8822 50.1139C93.0445 50.294 93.2045 50.4715 93.3352 50.668C93.3462 50.6848 93.3573 50.7017 93.3682 50.7187C93.3865 50.747 93.4047 50.7755 93.4228 50.8039L93.4243 50.8062C93.6837 51.213 93.9406 51.6158 94.5416 51.4605C95.0738 51.3227 95.17 50.8826 95.2643 50.4511C95.2864 50.3503 95.3083 50.2499 95.3357 50.154C95.4107 49.888 95.4642 49.6149 95.5052 49.3401C95.8317 47.1234 95.9267 47.0699 97.9147 48.0158C99.5457 48.7922 100.089 48.4834 99.9477 46.7326C99.8727 45.8117 99.8797 45.137 100.733 44.4553C101.755 43.6379 101.277 41.8799 99.9242 41.5176C98.6107 41.166 97.3382 41.2428 95.9837 41.3588C94.9803 41.4455 93.9373 41.5895 92.9007 41.7326L92.9006 41.7326C92.1246 41.8397 91.3522 41.9463 90.6026 42.0281C89.9711 42.0959 89.6281 41.9049 89.4801 41.2C89.3286 40.4735 89.5926 40.2309 90.2191 40.0881C90.463 40.0323 90.7121 39.9986 90.9616 39.9649C91.1194 39.9436 91.2773 39.9223 91.4341 39.8953C93.9741 39.4545 97.5722 38.9779 100.843 39.3063C98.9896 38.2587 99.5531 37.56 100.192 36.7683L100.192 36.7676L100.193 36.7662C100.248 36.6981 100.304 36.6294 100.358 36.5597C101.154 35.5404 101.101 34.4925 101.041 33.3021C101.013 32.7312 100.982 32.1276 101.043 31.4785C99.7595 31.7903 98.6013 32.2824 97.4674 32.7642C96.2901 33.2645 95.139 33.7537 93.9006 34.0182C89.8761 34.8802 85.8286 35.6031 81.7416 36.0242C81.079 36.0927 80.4164 36.1669 79.7537 36.2412L79.7525 36.2414L79.7524 36.2414C76.0422 36.6574 72.3267 37.074 68.5705 36.4668C64.949 35.8815 61.5154 34.7321 58.1134 33.4186C58.0277 33.3858 57.9369 33.3185 57.8405 33.2471C57.5479 33.0304 57.2048 32.7761 56.8019 33.34C55.7739 34.7785 55.1904 34.791 54.5049 33.1883C53.8929 31.7569 52.8484 31.068 51.5529 30.4113C48.742 28.9853 45.9739 27.4701 43.2415 25.8995C40.6751 24.4253 38.4869 22.3425 36.9914 19.7886ZM49.1043 49.515C49.745 49.5685 50.5409 49.7934 50.5854 50.7785C50.5069 51.487 49.9413 51.8905 49.3738 51.585C48.5798 51.1541 47.7024 50.8998 46.8252 50.6455C45.3089 50.2061 43.7935 49.7669 42.7114 48.4156C42.6325 48.317 42.545 48.22 42.4577 48.1233C42.0219 47.6403 41.5905 47.1622 42.2492 46.5095C42.8574 45.9074 43.3461 46.3296 43.8183 46.7377L43.8185 46.7379C43.8936 46.8027 43.9682 46.8671 44.0428 46.9271L44.0504 46.9332C45.5524 48.1412 47.0411 49.3386 49.1043 49.515ZM16.4867 25.05C16.5884 26.235 15.5515 26.5063 14.5253 26.6188C13.4544 26.492 12.3408 26.2422 12.2497 24.9304C12.1659 23.715 13.1582 23.392 14.163 23.3866C15.3052 23.3795 16.3796 23.8096 16.4867 25.05ZM36.811 25.6254C36.7934 25.7439 36.7743 25.8733 36.7558 26.0191C36.6908 26.2159 36.687 26.4789 36.683 26.7526C36.6728 27.4566 36.6615 28.2311 35.6064 28.1322C34.5565 28.0339 34.6747 27.2575 34.7904 26.4977V26.4977L34.7904 26.4977L34.7904 26.4974C34.8344 26.2086 34.878 25.9222 34.8568 25.6764C34.8319 25.3891 34.8604 25.0928 34.9015 24.8055C34.9943 24.1719 35.2673 23.6561 36.008 23.7257C36.7593 23.7971 36.8932 24.3807 36.8789 25.0054C36.8742 25.1977 36.8458 25.39 36.811 25.6253L36.811 25.6254ZM86.9156 43.3291C86.5816 43.4612 86.1996 43.4505 85.8911 43.2684C85.5806 43.0846 85.4236 42.7973 85.5181 42.4582C85.8536 41.266 86.9976 40.9162 88.0326 40.6306C88.6111 40.47 89.0911 40.9787 88.9466 41.5801C88.6954 42.6287 87.833 42.968 87.0244 43.2862L86.9156 43.3291ZM106.293 32.6263C105.818 33.2473 105.328 33.8869 105.027 34.4184C105.402 34.247 106.491 33.4564 106.616 33.3565C107.192 32.8817 107.851 32.4231 108.434 33.1887C109.07 34.0215 108.375 34.5176 107.796 34.9311C107.758 34.958 107.721 34.9846 107.685 35.0109C107.213 35.3526 106.705 35.6431 106.148 35.9619L106.148 35.9621C105.893 36.1077 105.628 36.2593 105.352 36.4244C105.697 36.6148 106.027 36.7935 106.344 36.9658L106.345 36.9659L106.345 36.966C107.019 37.3314 107.639 37.6681 108.247 38.0271C108.862 38.3917 109.465 38.7773 110.103 39.1849L110.103 39.185C110.415 39.3839 110.734 39.588 111.067 39.7975C111.085 39.6315 111.102 39.4954 111.117 39.3786L111.117 39.3784C111.144 39.1652 111.163 39.0164 111.165 38.8677C111.166 38.8058 111.167 38.7427 111.167 38.6789C111.173 37.9508 111.18 37.1357 112.164 37.1668C113.254 37.2027 113.226 38.1587 113.202 38.9479L113.199 39.0533C113.096 42.944 110.631 45.5693 106.789 45.9173C106.599 45.9348 106.406 45.9394 106.214 45.9439C106.17 45.9449 106.125 45.946 106.081 45.9472C106.023 45.9488 105.966 45.9506 105.909 45.953C105.43 45.9726 105.132 46.2332 105.054 46.6865C104.977 47.1381 105.161 47.5093 105.613 47.6575C105.861 47.7386 106.11 47.8236 106.358 47.9086C107.109 48.1659 107.862 48.4236 108.634 48.5766C112.891 49.4172 116.567 47.8591 118.659 44.3985C120.747 40.9469 120.395 37.265 117.616 33.8187L117.558 33.7455C117.026 33.0843 116.476 32.3997 115.801 31.9126C113.631 30.3492 111.789 28.5163 110.508 26.1515L110.473 26.087C110.269 25.7041 110.025 25.2469 109.448 25.6268C108.987 25.9299 108.466 26.2424 107.92 26.5694C105.935 27.7597 103.63 29.1424 102.719 30.9667C102.346 31.7127 102.198 33.3101 102.459 34.7325C103.805 33.335 105.086 31.4628 105.761 29.9655L105.782 29.9186L105.805 29.8662C105.824 29.8214 105.843 29.7761 105.862 29.7306L105.862 29.7303C106.136 29.0836 106.424 28.4041 107.331 28.8268C108.27 29.2645 107.888 30.0727 107.582 30.7226L107.538 30.815C107.32 31.284 106.815 31.9438 106.293 32.6262L106.293 32.6263ZM91.8007 21.0185L91.8007 21.0186C91.847 21.19 91.8934 21.3615 91.9402 21.5327C92.1332 22.2419 91.7423 22.4748 91.2356 22.7767C91.2042 22.7954 91.1723 22.8144 91.1402 22.8338C87.9831 24.7435 84.5406 24.5882 81.0676 24.3508C80.1161 24.2866 80.1341 23.8172 80.5641 23.2335C81.7136 21.6683 81.4171 20.0871 80.8231 18.413C79.6486 15.1041 78.3316 11.8559 76.8646 8.66841C76.2611 7.35845 76.5521 6.85334 77.9906 6.88729C78.5235 6.90008 79.058 6.86436 79.5988 6.82821C80.5687 6.7634 81.559 6.69722 82.5971 6.90689C82.2428 7.44319 81.7759 7.71836 81.3327 7.97951C81.0636 8.13815 80.8031 8.29162 80.5821 8.49531C80.1626 8.88081 79.8611 9.30556 80.2696 9.86241C80.6406 10.3693 81.1226 10.4353 81.6566 10.1051C81.9984 9.8925 82.3405 9.68017 82.6826 9.46782L82.6872 9.46493L82.6879 9.46453L82.6881 9.46437C83.8375 8.75096 84.9872 8.03731 86.1286 7.31205C86.6446 6.98365 87.2266 6.68379 87.7741 6.9426C88.2954 7.19081 88.1993 7.67501 88.1104 8.12242C88.0836 8.25732 88.0575 8.38887 88.0491 8.50961C88.0084 9.10859 87.9633 9.70718 87.9183 10.3056L87.9181 10.3078L87.9181 10.308C87.7085 13.0896 87.4993 15.8683 87.7296 18.67C87.6601 19.9177 87.5897 19.9917 87.1886 20.4132L87.1886 20.4133L87.1885 20.4134C87.0847 20.5224 86.9588 20.6548 86.8051 20.8367C86.3681 21.3542 85.9091 21.9039 86.5536 22.5018C87.1656 23.0693 87.7371 22.6963 88.2296 22.1966C89.6681 20.7314 90.0266 19.955 89.6376 17.7134C89.5521 17.2128 89.5752 16.6913 89.5983 16.169C89.609 15.9278 89.6196 15.6864 89.6196 15.4468C90.7709 17.2084 91.2864 19.1157 91.8007 21.0185ZM64.1386 23.7572C60.6736 24.4713 57.2552 25.1758 53.876 23.0855C53.628 23.0926 53.3925 23.1211 53.2425 23.33C52.3575 24.5739 51.5865 25.8785 51.2045 27.3723C51.0865 27.8346 51.3345 28.1202 51.763 28.3308C56.4946 30.6562 61.2791 32.8247 66.4476 34.0401C67.3916 34.2614 67.5041 33.7795 67.4131 33.1745C67.1741 31.6004 68.0666 30.6866 69.1426 29.7889C69.2133 29.7296 69.2863 29.6707 69.36 29.6111C69.917 29.161 70.513 28.6792 70.4436 27.8328C70.2721 25.759 67.4951 23.0979 65.4786 23.487C65.0312 23.5733 64.5845 23.6654 64.1386 23.7572ZM24.3778 43.2383C24.3868 43.2722 24.3511 43.3008 24.3189 43.2847C21.3152 41.7873 19.725 43.274 17.9796 45.0837C16.8342 46.2711 15.2714 46.8864 13.7139 47.4997C13.0895 47.7456 12.4659 47.9911 11.8705 48.273C11.1387 48.6192 10.4516 47.9035 9.91976 47.3431C9.44861 46.847 9.03276 46.4472 8.72045 47.4663C8.5848 47.9089 8.1779 48.2391 7.787 48.0874C7.51789 47.9832 7.24484 47.8824 6.97099 47.7813L6.97095 47.7813L6.97088 47.7813L6.97078 47.7812L6.97061 47.7812L6.97036 47.7811L6.96999 47.781L6.96959 47.7808L6.96916 47.7806C5.82703 47.3591 4.67106 46.9324 3.72856 46.233C3.03073 45.7137 2.74696 45.6334 2.02594 45.9957C0.478582 46.7702 0.0448937 46.4793 0.00206034 44.8374C-0.0836065 41.5964 2.51317 38.9317 5.73994 38.88C6.28758 38.8716 7.06612 39.6166 7.59836 40.1259C7.74259 40.264 7.86874 40.3847 7.9673 40.4684C8.57237 40.9797 8.83203 41.1707 9.07246 41.3475C9.29865 41.5139 9.5078 41.6677 9.97151 42.064C11.4689 43.3454 13.3339 43.6613 9.26301 38.5088C9.15056 38.3678 9.36831 38.1804 9.52711 38.2678C10.4195 38.7622 12.1703 40.0633 12.5754 40.4042C13.143 40.8789 14.3726 41.5375 15.8147 41.6356C16.6303 41.6909 15.8664 40.4113 15.306 39.9936C14.4547 39.3583 13.5195 38.8693 12.5148 38.5284C12.4822 38.5172 12.4495 38.5063 12.417 38.4954C12.0271 38.3644 11.6483 38.2372 11.4671 37.8484C11.4118 37.7288 11.4957 37.5896 11.6277 37.5843C14.0478 37.4861 23.9977 41.7945 24.3778 43.2383ZM74.9706 25.5578C73.7922 25.4188 72.5832 25.2762 71.3287 25.1302C73.1672 27.9393 72.3802 29.8989 70.2042 31.5266C70.0652 31.6302 69.9262 31.7479 69.8187 31.8836C69.2512 32.6064 69.3837 33.4809 69.5512 34.2323C69.6767 34.7961 70.2128 34.7509 70.694 34.7104C70.8282 34.6991 70.9582 34.6882 71.0737 34.6909C75.9388 34.8123 80.7413 34.1966 85.6048 33.4702C85.1088 32.2066 84.8443 31.018 84.9318 29.7686C85.145 26.7171 85.1409 26.7167 82.0765 26.3784L82.0213 26.3723C79.713 26.1173 77.4072 25.8453 74.9711 25.5579L74.9708 25.5579L74.9706 25.5578ZM88.9582 32.8979C87.9032 33.0246 87.3142 32.5017 87.0592 31.5129C86.9437 31.0628 86.9843 30.5926 87.0233 30.1421V30.142C87.0541 29.7853 87.0839 29.4409 87.0342 29.1285C86.6505 26.7046 88.1585 26.1316 89.7112 25.5416C89.9431 25.4535 90.176 25.365 90.4037 25.27C90.7702 25.1167 91.1376 24.9651 91.5051 24.8136C92.8192 24.2715 94.1335 23.7293 95.4097 23.1087C96.3932 22.6304 97.1372 22.7767 97.9902 23.3871C98.4251 23.6986 98.8657 24.0023 99.3063 24.3059C100.557 25.1676 101.807 26.029 102.922 27.069L102.933 27.0798C103.376 27.4926 103.854 27.9381 102.925 28.3415C102.395 28.5716 101.867 28.8051 101.338 29.0386L101.337 29.0388L101.337 29.039L101.336 29.0392L101.336 29.0394L101.335 29.0396L101.335 29.0398L101.334 29.04L101.334 29.0402L101.333 29.0404L101.333 29.0406L101.332 29.0408L101.332 29.041C97.3627 30.7934 93.3909 32.5468 88.9582 32.8979ZM98.9472 13.9279C100.941 18.4843 100.18 19.6301 93.9481 21.4594C93.1556 18.2755 92.3241 15.1058 90.5266 12.2948C90.3823 12.0699 90.3223 11.7877 90.2634 11.5114C90.2481 11.4392 90.2328 11.3674 90.2161 11.2972C89.7221 9.23045 89.8931 9.0038 91.9566 9.43396C93.5896 9.77481 95.2311 9.80161 96.8681 9.71951C98.3512 9.64631 98.4262 10.1389 97.8011 11.2883C97.4059 12.0161 97.0718 12.7759 96.7376 13.536L96.7376 13.536C96.5531 13.9557 96.3686 14.3754 96.1736 14.7899C95.8791 15.4163 95.6596 16.0642 96.4251 16.464C97.276 16.9097 97.6296 16.2819 97.967 15.6826L98.0207 15.5876C98.122 15.4058 98.1968 15.2087 98.2718 15.0109L98.2719 15.0108C98.4229 14.6126 98.575 14.2117 98.9472 13.9279ZM51.3367 22.5251C50.5212 23.8351 49.8429 25.2486 49.1986 26.6853C49.0582 26.9977 48.7394 26.782 48.4825 26.6081C48.4194 26.5655 48.3601 26.5253 48.308 26.4961C47.5788 26.0904 46.8564 25.6724 46.1342 25.2546L46.1341 25.2546L46.1341 25.2546L46.1341 25.2546L46.134 25.2545L46.134 25.2545L46.134 25.2545L46.1339 25.2545L46.1339 25.2544L46.1339 25.2544C45.2901 24.7663 44.4466 24.2784 43.5928 23.8101C42.4166 23.1658 42.4755 22.3127 43.0609 21.3293C43.641 20.3531 44.5226 19.6749 45.4132 19.0092C45.7612 18.7504 46.1003 18.5595 46.4573 19.0074C47.5622 20.3947 49.1129 21.1267 50.6628 21.8583L50.7747 21.9111C50.8043 21.9253 50.8347 21.9389 50.8652 21.9525C51.0969 22.0564 51.3367 22.1639 51.3367 22.5251ZM100.826 10.6672C100.835 12.0182 100.844 13.3532 101.608 14.8434C102.163 13.6867 102.106 12.5574 102.05 11.4486C102.008 10.619 101.966 9.80092 102.183 8.99131C102.893 6.32314 102.341 5.73954 99.4 5.51289C99.011 5.48271 98.6218 5.45546 98.2328 5.42823C96.0446 5.27504 93.8619 5.12224 91.7525 4.45096C90.7745 4.14042 90.125 4.32246 90 5.39149C89.8945 6.28029 89.9 7.0388 91.1885 7.27975C93.457 7.70275 95.7235 7.8116 98.015 7.8473C100.337 7.883 100.812 8.3827 100.826 10.6672ZM99.5807 21.9858C99.77 21.7625 99.967 21.5378 100.167 21.3102L100.167 21.3101C100.635 20.7757 101.119 20.2248 101.549 19.6354C102.021 18.9875 102.522 18.9608 103.207 19.1946C104.873 19.7642 106.384 20.6359 107.894 21.5074L107.894 21.5075L107.894 21.5078C108.201 21.6846 108.507 21.8615 108.815 22.0358C109.677 22.523 109.377 23.162 108.811 23.5635C107.947 24.1771 107.035 24.7246 106.123 25.2719L106.123 25.272C105.836 25.4443 105.549 25.6166 105.263 25.7909C104.841 26.0497 104.538 25.8115 104.212 25.5552L104.178 25.5285C103.025 24.6262 101.863 23.7359 100.793 22.9157L100.79 22.9138L100.789 22.9125C100.37 22.5917 99.9653 22.2817 99.5807 21.9858ZM42.7257 6.66433C41.9674 7.07236 41.1873 7.49208 40.3739 7.9291C40.953 8.14227 41.4416 8.50226 41.8996 8.8398C42.6075 9.36144 43.2427 9.82948 44.0272 9.61926C45.2588 9.2894 46.4562 8.83735 47.6566 8.3842C48.6515 8.00862 49.6484 7.63227 50.6684 7.3241C51.5354 7.06174 51.7979 4.89867 51.0894 4.55778C49.8044 3.94026 48.5176 3.55834 46.9881 4.37574C45.5927 5.12174 44.2005 5.87084 42.7261 6.66416L42.7257 6.66433ZM77.6645 4.93279C78.371 2.98209 79.351 1.95231 81.3195 1.9059C82.2097 1.88462 83.0893 1.72904 83.9712 1.57303C84.9389 1.40186 85.9094 1.23018 86.9 1.23485L87.0299 1.2353C87.972 1.23772 88.9816 1.24032 88.874 2.51984C88.7865 3.57105 88.5085 4.79537 87.0735 4.9435C86.2005 5.03453 85.303 5.10234 84.4375 5.00064C82.278 4.74718 80.122 4.64724 77.6645 4.93279ZM35.0952 15.825L35.0953 15.825L35.0964 15.8253C35.4386 15.9176 35.7996 16.0149 36.187 16.1228C36.1022 15.6912 36.0175 15.2965 35.938 14.9256L35.9379 14.9256L35.9379 14.9252C35.7832 14.2041 35.6478 13.5728 35.5677 12.9353C35.2429 10.2957 34.8431 9.99586 32.1821 10.5759C32.0448 10.606 31.9057 10.6333 31.7665 10.6607C31.3285 10.7469 30.8879 10.8335 30.4884 11.0096C28.8607 11.7306 28.8946 13.3172 29.0588 14.629C29.1777 15.5787 29.7142 15.3459 30.2558 15.1108C30.5193 14.9965 30.784 14.8816 31.0024 14.902L31.0656 14.9078C31.7464 14.9699 32.4059 15.03 33.0638 15.2429C33.7051 15.4502 34.3565 15.6258 35.0952 15.825ZM68.6709 4.5419C66.8544 4.68468 66.1224 3.81909 66.4724 2.00581C66.5646 1.52695 66.863 1.5321 67.1594 1.53721C67.1845 1.53764 67.2095 1.53807 67.2344 1.53821C70.0202 1.55931 72.7736 1.21858 75.5297 0.877492L75.6565 0.861805C76.9235 0.704749 77.361 1.14736 76.7005 2.34848C76.6162 2.50158 76.5313 2.65436 76.4464 2.80715L76.446 2.80771L76.4457 2.80835L76.4453 2.80914L76.445 2.80967C76.2462 3.16723 76.0474 3.52489 75.8565 3.88691C75.6975 4.18675 75.294 4.8935 74.848 4.55797C73.5297 3.56265 72.4938 3.8483 71.2039 4.204C71.1176 4.2278 71.0302 4.25192 70.9415 4.27598C70.4415 4.41109 69.9136 4.4473 69.3857 4.4835C69.1466 4.4999 68.9074 4.51631 68.6709 4.5419ZM49.9118 1.16366C49.5781 1.06907 48.6072 0.908439 48.2574 0.872744C47.4499 0.78098 46.7438 1.09006 46.0413 1.39756L45.8944 1.4617C45.3932 1.67931 44.8928 1.89885 44.3924 2.11839L44.3917 2.11869C42.0523 3.14507 39.7131 4.17134 37.2903 4.99902C37.201 5.0295 37.0878 5.04293 36.9705 5.05683C36.6138 5.09911 36.2199 5.14579 36.3515 5.68973C36.4568 6.12699 36.9762 6.79269 37.4634 6.78734C37.9756 6.78194 38.5039 6.65344 38.9911 6.48214C41.0453 5.76109 42.9675 5.03473 44.8611 3.98351C46.1889 3.24642 48.0718 2.50219 49.7387 3.0162C50.0242 3.10365 50.2547 2.40582 50.3257 2.00961C50.3917 1.63839 50.3207 1.27788 49.9118 1.16366ZM106.169 15.984C106.984 16.0963 108.079 16.2484 109.196 16.4034L109.466 16.4408C110.533 16.589 110.731 17.3903 110.317 18.0882C110.249 18.2027 110.183 18.3359 110.115 18.475C109.783 19.1464 109.385 19.9538 108.348 19.4481C107.933 19.246 107.524 19.034 107.114 18.822L107.114 18.822C106.029 18.261 104.946 17.7004 103.771 17.3261C103.58 17.2654 103.339 17.0691 103.298 16.8942C103.219 16.5711 103.501 16.4016 103.772 16.2695C104.271 16.0258 104.798 16.0163 105.474 16.0041C105.69 16.0002 105.92 15.996 106.169 15.984ZM107.705 15.0287C107.945 15.0539 108.203 15.081 108.489 15.1077C108.547 15.1028 108.631 15.1262 108.727 15.1531C109.018 15.234 109.423 15.347 109.572 14.8222C109.754 14.1879 109.304 14.0007 108.861 13.8167C108.739 13.7662 108.618 13.716 108.511 13.6567C108.185 13.4767 107.818 13.3432 107.45 13.2096C106.328 12.8016 105.206 12.3934 105.255 10.6602C105.267 10.2369 104.773 10.2304 104.377 10.2252C104.313 10.2244 104.253 10.2236 104.197 10.2211C103.669 10.1962 103.544 10.5228 103.442 11.0046C102.885 13.6531 103.758 14.7972 106.478 14.9221C106.867 14.9407 107.254 14.9814 107.705 15.0287Z" fill="#262626"/>
</svg>
