<svg width="52" height="24" viewBox="0 0 52 24" fill="none" xmlns="http://www.w3.org/2000/svg">
<path fill-rule="evenodd" clip-rule="evenodd" d="M22.9515 2.43318C22.9652 2.51263 23.0476 2.56152 23.124 2.53478C23.2158 2.50347 23.2952 2.47597 23.3693 2.43776C24.1777 2.01988 24.9523 1.66464 25.9385 2.00536C26.4115 2.16886 27.1212 2.22844 27.5352 1.89841C27.8759 1.62644 27.6788 1.04277 27.4572 0.64093C27.432 0.595155 27.4084 0.547807 27.3849 0.500534L27.3848 0.500494C27.2418 0.213264 27.1001 -0.0712318 26.5924 0.0160118C25.6743 0.173758 24.7483 0.284345 23.8224 0.394928C23.4254 0.442332 23.0285 0.489735 22.6322 0.540852C22.199 0.596622 21.9736 1.07944 22.3144 1.30634C22.7482 1.59511 22.8736 1.98702 22.9515 2.43318ZM16.993 8.62053C17.0541 8.82375 17.1993 9.01856 17.4957 9.10946C17.8058 8.41427 18.3337 7.88866 18.951 7.44481C19.0992 7.33783 19.2513 7.21256 19.1443 7.01086C18.9934 6.7255 18.8727 6.42538 18.7529 6.12741L18.7529 6.12739C18.3941 5.23524 18.0431 4.36241 16.912 3.96267C16.1129 3.68077 15.4582 3.30566 14.912 2.70215C14.5583 2.31099 13.902 2.31559 13.3917 2.35302C12.0593 2.45079 11.4719 3.33317 11.0036 4.4325C10.6155 5.34467 10.6705 5.68615 11.5223 6.18809C11.808 4.1743 12.2137 3.78314 14.2244 3.5891C15.3444 3.48061 15.9044 3.95732 16.0174 5.08493C16.105 5.96136 16.3852 6.7875 16.6654 7.61346C16.7789 7.94807 16.8923 8.28265 16.993 8.62053ZM27.207 2.90495C26.8993 2.91919 26.5915 2.93344 26.2834 2.94899C26.2631 3.24014 26.3897 3.44861 26.5116 3.64917C26.5452 3.70438 26.5784 3.759 26.608 3.81457C26.6692 3.9285 26.7307 4.04232 26.7923 4.15613L26.7927 4.15687L26.7932 4.15782C27.6025 5.65517 28.4117 7.15229 28.4598 8.9224C28.4671 9.18479 28.6287 9.22952 28.8133 9.2806L28.8466 9.28987C29.0746 9.35442 29.302 9.42166 29.5294 9.48889L29.5294 9.48891L29.5295 9.48893L29.5296 9.48895L29.5296 9.48897L29.5297 9.48899L29.5298 9.48901L29.5299 9.48903L29.5299 9.48905L29.53 9.48907L29.5301 9.48909L29.5301 9.48911L29.5302 9.48913L29.5303 9.48915L29.5303 9.48917L29.5304 9.48919L29.5305 9.48921L29.5305 9.48923L29.5306 9.48925C30.5297 9.78469 31.5283 10.08 32.5822 10.1478C33.3461 10.1974 34.0956 9.57251 33.9535 8.81774C33.7531 7.75628 33.3147 6.76428 32.8208 5.64672L32.8198 5.64459L32.8191 5.64295C32.7654 5.52145 32.7111 5.39846 32.6563 5.27373C32.5633 5.69249 32.5213 6.07779 32.4819 6.43921C32.4292 6.92373 32.381 7.36534 32.2209 7.78715L32.204 7.83234C32.092 8.13122 31.9661 8.46744 31.5547 8.30893C31.2108 8.17679 31.2981 7.88797 31.3806 7.61503C31.3892 7.58661 31.3977 7.55835 31.4057 7.53047C31.7824 6.22185 31.7653 4.8795 31.7482 3.53989L31.7482 3.53953L31.7482 3.53917L31.7482 3.53881L31.7482 3.53845L31.7482 3.53809L31.7482 3.53772L31.7482 3.53736L31.7482 3.537L31.7482 3.53663L31.7482 3.53627L31.7481 3.53591L31.7481 3.53555L31.7481 3.53519L31.7481 3.53483L31.7481 3.53446L31.7481 3.53411C31.7467 3.42181 31.7453 3.30953 31.7441 3.19729C31.7372 2.56321 31.4547 2.31491 30.7724 2.57391C30.3838 2.72173 29.9417 2.75062 29.5127 2.77865C29.4628 2.78191 29.4131 2.78516 29.3637 2.78858C28.6459 2.83835 27.927 2.87162 27.2071 2.90495L27.207 2.90495ZM30.3989 3.28973C30.418 3.35543 30.4203 3.42495 30.4004 3.48989C30.3491 3.65857 30.2398 3.76185 30.1331 3.8627L30.1331 3.86272C30.1156 3.87924 30.0982 3.89569 30.0811 3.91236C29.631 4.34782 29.1811 4.78326 28.8992 5.35472C28.7702 5.61521 28.5775 5.76037 28.2995 5.61827C28.0221 5.47695 28.029 5.22559 28.1473 4.9712C28.5041 4.20267 29.1032 3.63656 29.7371 3.10256C29.8793 2.98339 30.0451 2.95205 30.2247 3.05367C30.3347 3.1163 30.3752 3.20722 30.3989 3.28973ZM27.6404 8.6303C27.6732 9.02223 27.5159 9.19334 27.1285 9.32628C26.017 9.70748 24.9458 9.75181 23.8373 9.29725C23.5866 9.19435 23.3342 9.09583 23.0817 8.9973C22.5881 8.80468 22.0945 8.61203 21.6134 8.3866C20.2758 7.76016 19.7998 6.51873 19.3338 5.26583C19.2482 5.03588 19.3277 4.87927 19.5538 4.79371C20.0442 4.60747 20.5383 4.43055 21.0324 4.25362L21.0324 4.25361L21.0325 4.25358L21.0325 4.25358L21.0326 4.25352L21.0326 4.25352C22.2836 3.80558 23.5346 3.35762 24.7251 2.75853C24.9535 2.64392 25.0933 2.70656 25.2018 2.93423C25.4415 3.4366 25.706 3.92766 25.9705 4.4187C26.5836 5.55703 27.1968 6.69526 27.5004 7.97406C27.5345 8.11839 27.5644 8.26372 27.5943 8.40895L27.5943 8.40911C27.6095 8.48291 27.6247 8.55669 27.6404 8.6303ZM26.6075 6.95953C26.5617 6.69291 26.4922 6.4301 26.3982 6.17648C26.1935 5.62143 25.9333 5.09823 25.674 4.57698C25.6071 4.44248 25.5403 4.30812 25.4745 4.17337C25.3439 3.90598 25.1429 3.68825 24.8221 3.85023C24.4944 4.01524 24.5845 4.28873 24.7136 4.56069C24.7945 4.73126 24.8791 4.90084 24.9638 5.07051L24.9639 5.07064C25.2047 5.55299 25.4458 6.03609 25.6029 6.5447C25.6399 6.66438 25.6784 6.77679 25.7161 6.88692C25.8645 7.32021 26.0009 7.71838 25.9864 8.3866C25.9817 8.60892 26.0055 8.84268 26.2445 8.955C26.386 9.02146 26.5493 9.01153 26.6685 8.89922C26.8423 8.73521 26.8331 8.51797 26.8243 8.3108C26.8227 8.27479 26.8212 8.23909 26.8207 8.20402L26.6075 6.95953ZM15.8342 8.47061C15.4813 7.86861 15.0366 7.54622 14.2582 7.51489C15.1665 10.1162 14.6264 12.4982 13.3017 14.7702C12.9908 15.3057 12.5614 15.7634 12.0549 16.1201L12.0187 16.1457C11.7678 16.3238 11.4498 16.5494 11.1993 16.2034C10.9797 15.9 11.1984 15.7166 11.4194 15.5313C11.4421 15.5122 11.4649 15.4931 11.4873 15.4738C13.4018 13.8229 13.9457 11.654 13.8235 9.24143C13.8028 8.82815 13.6111 8.64479 13.1542 8.64556C12.7982 8.6458 12.4423 8.63346 12.0864 8.62113L12.0863 8.62112H12.0863H12.0863H12.0863H12.0863H12.0863H12.0863H12.0863H12.0863H12.0863H12.0862H12.0862H12.0862H12.0862H12.0862H12.0862H12.0862H12.0862H12.0862H12.0862H12.0862C11.3363 8.59513 10.5865 8.56914 9.83636 8.66084C9.56211 8.69444 9.30617 8.64556 9.24429 8.3392C9.14509 7.84664 9.68471 7.80453 10.0239 7.77806C10.0582 7.77538 10.0905 7.77286 10.1198 7.77005C10.2527 7.75783 10.3856 7.74867 10.5193 7.7479C10.9521 7.74665 11.3851 7.75085 11.818 7.75506H11.8181H11.8181H11.8182H11.8182H11.8183H11.8183H11.8184H11.8184H11.8185H11.8185H11.8186H11.8186H11.8187H11.8187H11.8188H11.8188H11.8189H11.8189H11.819H11.819C12.1798 7.75856 12.5407 7.76207 12.9014 7.76241C12.9221 7.76253 12.9446 7.76399 12.9678 7.7655C13.0942 7.7737 13.241 7.78321 13.2306 7.58442C13.2222 7.41787 13.0671 7.1016 12.9021 7.1627C12.5863 7.2796 12.278 7.22667 11.9701 7.17379C11.7588 7.13752 11.5477 7.10127 11.3345 7.11992C11.2763 7.12512 11.2187 7.13541 11.1633 7.14531C10.9665 7.18046 10.7977 7.21062 10.7279 6.99005C10.4781 6.20088 9.89595 6.15352 9.22749 6.29409C9.09851 6.32128 8.96742 6.34441 8.83607 6.36759C8.39173 6.44601 7.94445 6.52494 7.56588 6.76315C6.17776 7.63712 4.73313 8.3606 3.14638 8.81667C2.53216 8.99316 2.01113 9.42631 1.96682 10.1452C1.92251 10.874 2.03635 11.6005 2.26859 12.2942C2.43054 12.777 2.69335 12.9955 3.21207 12.6029C4.05626 11.9642 4.95773 11.8366 5.96386 12.321C6.82714 12.7365 7.75763 12.9505 8.74389 12.8618L8.84156 12.8529C9.46738 12.7952 10.0637 12.7402 10.6599 12.913C10.7154 12.9291 10.7731 12.9412 10.8294 12.953C11.0705 13.0036 11.2859 13.0488 11.1954 13.3752C11.0793 13.7954 10.7294 13.8275 10.433 13.732C9.91982 13.5673 9.3945 13.6209 8.86353 13.675C8.79852 13.6817 8.73344 13.6883 8.66828 13.6946C7.59873 13.7962 6.63002 13.4975 5.66056 13.1323C5.60604 13.1117 5.5515 13.0901 5.49683 13.0683L5.49676 13.0683L5.4967 13.0683L5.49663 13.0683L5.49657 13.0682L5.4965 13.0682L5.49643 13.0682L5.49637 13.0681L5.4963 13.0681L5.49624 13.0681L5.49617 13.0681L5.49611 13.068L5.49604 13.068L5.49597 13.068L5.49591 13.068L5.49584 13.0679L5.49578 13.0679L5.49571 13.0679L5.49564 13.0679L5.49558 13.0678L5.49551 13.0678C5.29243 12.9871 5.08766 12.9057 4.87674 12.8787C4.45581 12.8244 4.03334 12.9696 3.80185 13.3011C3.65626 13.5099 3.8053 13.721 3.94669 13.9211L3.9467 13.9212L3.94671 13.9212C3.99153 13.9846 4.03558 14.047 4.06923 14.1079C4.38094 14.6701 4.84543 15.0162 5.43979 15.3195C6.18785 15.7009 6.99009 15.956 7.79194 16.2109L7.792 16.2109L7.79202 16.2109C9.0169 16.6003 10.2409 16.9894 11.2696 17.8283C11.5973 18.0957 11.8517 17.9338 12.1068 17.6656C13.3147 16.3982 14.4102 15.0674 14.7608 13.2866C14.8166 13.0047 14.9457 12.803 15.2605 12.8557C15.6272 12.9176 15.5981 13.2392 15.5546 13.5181C15.5279 13.6938 15.4927 13.8687 15.4453 14.0399C15.0664 15.4028 14.2704 16.5166 13.3605 17.5655C13.3155 17.6176 13.2641 17.6659 13.2119 17.7149C13.0718 17.8464 12.9266 17.9828 12.8876 18.2088C13.4201 18.2546 13.7814 18.0759 14.0939 17.6893C14.1815 17.5809 14.2705 17.4735 14.3594 17.3662C14.879 16.739 15.3967 16.114 15.6348 15.3057C15.7089 15.0544 15.864 14.9077 16.1344 14.9711C16.4507 15.0452 16.505 15.2928 16.4362 15.5594C16.3736 15.7993 16.2727 16.0315 16.1711 16.2599C15.9975 16.6494 15.7416 16.9867 15.4781 17.334L15.4781 17.334C15.293 17.5781 15.1041 17.8271 14.9373 18.1026C15.271 18.1736 15.5894 18.1127 15.9001 18.0532C16.2682 17.9828 16.6256 17.9144 16.9847 18.0698C17.1184 18.127 17.2926 18.179 17.4072 18.0438C17.5241 17.9069 17.4597 17.7738 17.3937 17.6371C17.3816 17.6121 17.3694 17.587 17.3583 17.5617C16.8525 16.4065 16.8748 15.1923 16.8971 13.9791C16.9011 13.7649 16.905 13.5508 16.906 13.337C16.9076 13.1254 16.9985 12.9451 17.2193 12.8695C17.3759 12.816 17.5248 12.8458 17.6318 12.9696C17.7652 13.1233 17.7699 13.3169 17.7747 13.5092L17.7754 13.5402C17.7839 13.8451 17.7798 14.1514 17.7756 14.4576C17.7614 15.5018 17.7472 16.5457 18.2346 17.5357C18.2934 17.6541 18.2628 17.8398 18.2223 17.9796C18.1514 18.2229 18.101 18.4727 18.0507 18.7224C17.9113 19.4135 17.7721 20.1041 17.1963 20.6558C17.0247 20.8202 16.9035 21.0349 16.78 21.2538C16.6567 21.4722 16.5311 21.6948 16.3506 21.8757C16.152 22.0744 16.0535 22.3701 16.2055 22.6405C16.3644 22.9232 16.6486 22.8423 16.8778 22.743C17.286 22.566 17.3126 22.7774 17.3514 23.0849L17.3553 23.1156C17.4469 23.8369 17.6341 23.9201 18.2651 23.5892C18.2999 23.5709 18.3359 23.544 18.3724 23.5166C18.4699 23.4435 18.571 23.3678 18.6616 23.4473C19.1688 23.8927 19.7563 23.8778 20.3452 23.8629C20.7117 23.8537 21.0787 23.8444 21.4272 23.946C22.1003 24.1425 22.5998 23.7902 22.7809 23.0891C22.8579 22.7894 22.9947 22.564 23.2393 22.3494C23.7541 21.898 23.9093 21.2638 24.0047 20.6015C24.253 18.878 23.9917 17.3195 22.7167 16.0155C22.37 15.661 22.13 15.1996 22.0307 14.6938C21.9817 14.4478 22.0506 14.2324 22.3088 14.1476C22.5746 14.0605 22.7434 14.2003 22.8276 14.4448C23.0366 15.0549 23.4155 15.5667 23.797 16.0819C24.2853 16.7415 24.7777 17.4066 24.9231 18.2905C25.3905 17.2875 25.1476 16.5266 24.512 15.8382C24.3035 15.6121 24.0918 15.3157 24.4043 15.0544C24.7432 14.7718 24.9612 15.0445 25.1551 15.2869L25.1707 15.3064L25.1973 15.3394C25.7634 16.0376 26.2317 16.7718 25.9192 17.8696C26.3169 17.4056 26.2761 17.0049 26.2357 16.608L26.2355 16.6068C26.2058 16.3157 26.1859 16.0185 26.5754 15.9834C26.8959 15.9541 26.9815 16.1869 27.0695 16.4263C27.0802 16.4552 27.0908 16.4842 27.1019 16.5128C27.1912 16.7432 27.1513 16.9735 27.1099 17.2128C27.0737 17.4217 27.0364 17.6376 27.0827 17.8665C27.2176 17.7906 27.3435 17.7063 27.4645 17.6251C27.7136 17.4583 27.9425 17.3049 28.1896 17.2653C28.3852 17.234 28.5812 17.1989 28.7774 17.1637L28.7775 17.1637L28.7776 17.1637L28.7777 17.1637L28.7778 17.1637L28.7779 17.1637L28.778 17.1636L28.7781 17.1636L28.7782 17.1636L28.7783 17.1636L28.7784 17.1636L28.7785 17.1636L28.7786 17.1635L28.7787 17.1635L28.7788 17.1635L28.7789 17.1635L28.779 17.1635L28.7791 17.1635L28.7792 17.1634L28.7793 17.1634L28.7794 17.1634C30.0106 16.9428 31.2506 16.7206 32.4479 17.428C33.6443 18.1347 34.7239 17.771 35.7322 17.0246C36.5373 16.4289 37.4555 16.0849 38.3747 15.7406L38.3751 15.7404C38.4659 15.7064 38.5568 15.6723 38.6475 15.6381C38.9234 15.5334 39.2763 15.4005 39.4268 15.7924C39.5901 16.2196 39.2364 16.344 38.9344 16.4503L38.9088 16.4593C37.9127 16.8115 36.9301 17.182 36.0639 17.8154C35.918 17.922 35.73 18.0049 35.5466 18.0858C35.2517 18.2159 34.9687 18.3407 34.8919 18.5503C34.7776 18.8632 35.0278 19.1898 35.2722 19.5089L35.2723 19.509C35.3597 19.6231 35.4463 19.7362 35.5154 19.8475C35.5733 19.9414 35.5866 20.0631 35.6 20.1849V20.185C35.6062 20.2415 35.6124 20.298 35.623 20.3517C35.7205 20.8393 36.064 21.1352 36.405 21.4289C36.5154 21.524 36.6255 21.6188 36.727 21.7199C36.876 21.8682 37.1638 21.7803 37.2158 21.5519C37.3301 21.0496 37.5545 21.1867 37.787 21.3289C37.8268 21.3532 37.8668 21.3776 37.9065 21.3991C38.1816 21.5478 38.3913 21.7677 38.6026 21.9893C38.6343 22.0226 38.666 22.0558 38.698 22.0889C39.0295 22.4311 39.3007 22.4121 39.4642 21.9155C39.4827 21.8598 39.4881 21.7995 39.4936 21.738C39.5055 21.6039 39.518 21.4635 39.6682 21.3494C39.6978 21.3841 39.7283 21.4179 39.7585 21.4515L39.7585 21.4515C39.828 21.5286 39.8965 21.6046 39.9524 21.6887L39.961 21.7017L39.9757 21.7245L39.9906 21.7478C40.1016 21.9219 40.2116 22.0944 40.4689 22.0279C40.6967 21.9689 40.7378 21.7805 40.7782 21.5958C40.7876 21.5527 40.797 21.5097 40.8087 21.4687C40.8408 21.3548 40.8638 21.2379 40.8813 21.1202C41.0211 20.1714 41.0617 20.1485 41.9127 20.5534C42.6109 20.8857 42.8433 20.7535 42.7829 20.0041C42.7508 19.6099 42.7538 19.3211 43.119 19.0293C43.5567 18.6794 43.352 17.9269 42.7729 17.7718C42.2106 17.6213 41.6659 17.6541 41.0861 17.7038C40.6566 17.7409 40.2101 17.8026 39.7664 17.8638L39.7664 17.8638L39.7663 17.8638L39.7663 17.8638L39.7663 17.8638L39.7662 17.8638L39.7661 17.8639C39.4341 17.9097 39.1035 17.9553 38.7827 17.9903C38.5124 18.0193 38.3656 17.9376 38.3023 17.6358C38.2374 17.3249 38.3504 17.221 38.6186 17.1599C38.723 17.136 38.8296 17.1216 38.9364 17.1072L38.9365 17.1072L38.9366 17.1071L38.9371 17.1071C39.0044 17.098 39.0718 17.0889 39.1387 17.0774C40.2259 16.8887 41.7661 16.6847 43.1663 16.8253C42.3728 16.3768 42.614 16.0777 42.8874 15.7388L42.8876 15.7386L42.8879 15.7382L42.8883 15.7377C42.9117 15.7087 42.9354 15.6793 42.9587 15.6495C43.2993 15.2132 43.2768 14.7647 43.2511 14.2551C43.2389 14.0107 43.2259 13.7523 43.2519 13.4745C42.7024 13.608 42.2066 13.8186 41.7213 14.0249C41.2173 14.239 40.7246 14.4484 40.1945 14.5617C38.4718 14.9306 36.7392 15.2401 34.9897 15.4203C34.706 15.4496 34.4223 15.4814 34.1385 15.5133L34.1383 15.5133C32.5501 15.6914 30.9596 15.8697 29.3518 15.6098C27.8016 15.3592 26.3318 14.8672 24.8756 14.305C24.8389 14.291 24.8 14.2621 24.7588 14.2316C24.6335 14.1388 24.4866 14.03 24.3142 14.2713C23.8742 14.8871 23.6244 14.8925 23.331 14.2064C23.069 13.5937 22.6219 13.2988 22.0673 13.0177C20.8641 12.4073 19.6792 11.7587 18.5096 11.0864C17.411 10.4554 16.4744 9.56383 15.8342 8.47061ZM21.0192 21.1951C21.2935 21.218 21.6341 21.3143 21.6532 21.736C21.6196 22.0393 21.3775 22.212 21.1345 22.0812C20.7947 21.8967 20.4191 21.7879 20.0436 21.6791C19.3946 21.4909 18.7459 21.3029 18.2827 20.7245C18.2489 20.6823 18.2115 20.6408 18.1741 20.5994L18.1741 20.5994C17.9875 20.3927 17.8029 20.188 18.0848 19.9086C18.3452 19.6509 18.5544 19.8316 18.7565 20.0063C18.7887 20.034 18.8206 20.0617 18.8526 20.0874L18.8559 20.09C19.4988 20.6071 20.136 21.1196 21.0192 21.1951ZM7.05707 10.7227C7.10063 11.23 6.65677 11.3461 6.2175 11.3943C5.75912 11.34 5.28241 11.2331 5.24344 10.6716C5.20754 10.1513 5.6323 10.0131 6.06242 10.0107C6.55134 10.0077 7.01125 10.1918 7.05707 10.7227ZM15.757 10.9691L15.757 10.9691L15.757 10.9691L15.7569 10.9693L15.7569 10.9695C15.7494 11.0201 15.7413 11.0753 15.7334 11.1376C15.7056 11.2218 15.7039 11.3344 15.7022 11.4516C15.6978 11.7529 15.693 12.0845 15.2414 12.0421C14.792 12.0001 14.8426 11.6677 14.8921 11.3425C14.9109 11.2188 14.9296 11.0961 14.9205 10.9909C14.9098 10.8679 14.922 10.7411 14.9396 10.6181C14.9793 10.3469 15.0962 10.1261 15.4133 10.1559C15.7349 10.1865 15.7922 10.4363 15.7861 10.7037C15.784 10.786 15.7719 10.8683 15.757 10.9691ZM37.2045 18.5472C37.0615 18.6038 36.898 18.5992 36.766 18.5212C36.633 18.4426 36.5658 18.3196 36.6063 18.1744C36.7499 17.6641 37.2396 17.5143 37.6826 17.3921C37.9303 17.3234 38.1357 17.5411 38.0739 17.7985C37.9664 18.2474 37.5972 18.3927 37.2511 18.5289L37.2045 18.5472ZM45.499 13.9658C45.2956 14.2316 45.0861 14.5054 44.9573 14.7329C45.1176 14.6596 45.5838 14.3212 45.6373 14.2784C45.8839 14.0752 46.1659 13.8788 46.4157 14.2066C46.6876 14.563 46.3903 14.7754 46.1425 14.9524L46.0949 14.9866C45.8929 15.1328 45.6756 15.2572 45.4371 15.3936C45.3281 15.456 45.2147 15.5209 45.0962 15.5916C45.2441 15.6731 45.3851 15.7496 45.5211 15.8234C45.8096 15.9798 46.0754 16.124 46.3355 16.2777C46.5987 16.4336 46.8567 16.5986 47.1295 16.7729L47.1296 16.773L47.1301 16.7733L47.1302 16.7733C47.2634 16.8585 47.4001 16.9458 47.5426 17.0355C47.5503 16.9647 47.5577 16.9067 47.5639 16.8568L47.5639 16.8567L47.564 16.8563L47.564 16.8561C47.5755 16.7648 47.5836 16.7012 47.5845 16.6375C47.585 16.6112 47.5853 16.5843 47.5855 16.5571V16.5567C47.588 16.245 47.5909 15.8961 48.0124 15.9094C48.4787 15.9248 48.4667 16.334 48.4567 16.6719L48.4554 16.7169C48.4111 18.3824 47.3562 19.5061 45.7114 19.6551C45.63 19.6626 45.5476 19.6645 45.4653 19.6665C45.4217 19.6675 45.3781 19.6686 45.3347 19.6704C45.1298 19.6788 45.0023 19.7903 44.9687 19.9844C44.9359 20.1777 45.0145 20.3366 45.208 20.4C45.3143 20.4347 45.4204 20.471 45.5266 20.5074L45.5269 20.5075L45.5269 20.5075C45.8485 20.6176 46.1706 20.728 46.5013 20.7934C48.3234 21.1532 49.8971 20.4863 50.7924 19.005C51.6862 17.5275 51.5357 15.9514 50.3461 14.4762L50.321 14.4449L50.3209 14.4449C50.0936 14.1619 49.8582 13.8688 49.5692 13.6603C48.6403 12.9911 47.8519 12.2065 47.3033 11.1943L47.2885 11.1666C47.2011 11.0027 47.0968 10.807 46.8496 10.9697C46.6524 11.0992 46.4297 11.2328 46.1967 11.3725L46.1963 11.3728L46.1961 11.3729L46.196 11.373L46.1958 11.3731L46.1957 11.3732C45.3461 11.8827 44.3591 12.4746 43.9694 13.2554C43.8097 13.5748 43.7464 14.2585 43.8579 14.8674C44.434 14.2692 44.9826 13.4678 45.2713 12.8269C45.286 12.7942 45.3003 12.7604 45.3147 12.7264L45.3148 12.7262C45.432 12.4494 45.5552 12.1585 45.9436 12.3395C46.3453 12.5268 46.1821 12.8728 46.0508 13.1509L46.0322 13.1905C45.9386 13.3913 45.7225 13.6737 45.499 13.9658ZM38.3619 6.61207C38.8547 7.36614 39.0754 8.18257 39.2955 8.99707C39.3154 9.07047 39.3352 9.14386 39.3552 9.21719C39.4379 9.52076 39.2706 9.62044 39.0536 9.74968L39.0128 9.77411C37.6614 10.5915 36.1878 10.5251 34.7012 10.4235C34.2939 10.396 34.3016 10.195 34.4856 9.94523C34.9777 9.27523 34.8508 8.59837 34.5965 7.88178C34.0938 6.4654 33.53 5.07498 32.9021 3.71055C32.6437 3.14982 32.7683 2.93361 33.384 2.94814C33.6122 2.95361 33.841 2.93832 34.0725 2.92285C34.4876 2.8951 34.9115 2.86678 35.3559 2.95653C35.2042 3.18609 35.0044 3.30388 34.8147 3.41567C34.6995 3.48357 34.588 3.54927 34.4934 3.63645C34.3138 3.80147 34.1847 3.98329 34.3596 4.22165C34.5184 4.43861 34.7247 4.46689 34.9533 4.32554C35.1002 4.2342 35.2471 4.14297 35.3941 4.05174L35.3943 4.05159L35.3945 4.05152C35.8866 3.74606 36.3788 3.44049 36.8676 3.12996C37.0885 2.98938 37.3376 2.86103 37.5719 2.97181C37.7951 3.07806 37.7539 3.28532 37.7159 3.47684C37.7044 3.53458 37.6932 3.5909 37.6897 3.64258C37.6722 3.89926 37.6529 4.15577 37.6336 4.41223V4.41226V4.41229V4.41232V4.41235V4.41238V4.41241V4.41244V4.41247V4.4125V4.41253V4.41256V4.41259V4.41262V4.41265V4.41268V4.41271V4.41274C37.5439 5.6033 37.4543 6.79262 37.5529 7.99179C37.5231 8.52584 37.493 8.55754 37.3213 8.73797C37.2769 8.78467 37.223 8.84133 37.1572 8.91924C36.9701 9.14078 36.7736 9.37608 37.0495 9.632C37.3115 9.87494 37.5561 9.71527 37.7669 9.50137C38.3827 8.87416 38.5361 8.54184 38.3696 7.58231C38.333 7.36802 38.3429 7.1448 38.3528 6.9212C38.3573 6.81796 38.3619 6.71463 38.3619 6.61207ZM27.4546 10.1694C25.9714 10.4751 24.5081 10.7766 23.0617 9.88184C22.9555 9.88488 22.8547 9.8971 22.7905 9.9865C22.4117 10.519 22.0816 11.0774 21.9181 11.7169C21.8676 11.9147 21.9737 12.037 22.1572 12.1271C24.1825 13.1225 26.2306 14.0508 28.443 14.571C28.8471 14.6657 28.8952 14.4595 28.8563 14.2005C28.754 13.5267 29.136 13.1355 29.5966 12.7513C29.6268 12.7259 29.658 12.7007 29.6896 12.6752L29.6896 12.6752C29.928 12.4825 30.1832 12.2763 30.1535 11.914C30.0801 11.0263 28.8914 9.88717 28.0282 10.0537C27.8367 10.0907 27.6455 10.1301 27.4546 10.1694ZM10.435 18.5083C10.4389 18.5228 10.4236 18.5351 10.4098 18.5282C9.12408 17.8872 8.44339 18.5236 7.69623 19.2983C7.20597 19.8065 6.53701 20.0699 5.87028 20.3325C5.60301 20.4377 5.33611 20.5428 5.08121 20.6635C4.76798 20.8117 4.47386 20.5053 4.2462 20.2654C4.04452 20.0531 3.86651 19.882 3.73283 20.3182C3.67476 20.5076 3.50059 20.649 3.33326 20.584C3.21781 20.5393 3.10067 20.4961 2.98319 20.4527C2.49429 20.2723 1.99947 20.0896 1.59603 19.7903C1.29732 19.5679 1.17585 19.5336 0.867212 19.6887C0.204859 20.0202 0.0192169 19.8957 0.000881937 19.1928C-0.0357882 17.8055 1.07577 16.6649 2.45701 16.6428C2.69143 16.6392 3.02469 16.9581 3.25251 17.1761L3.25257 17.1761C3.31429 17.2352 3.36826 17.2869 3.41044 17.3227C3.66943 17.5415 3.78058 17.6233 3.88349 17.699L3.8835 17.699C3.98033 17.7702 4.06986 17.8361 4.26835 18.0057C4.90932 18.5542 5.70765 18.6894 3.96507 16.4839C3.91694 16.4235 4.01015 16.3433 4.07812 16.3807C4.4601 16.5923 5.20956 17.1493 5.38297 17.2952C5.62591 17.4984 6.15227 17.7803 6.76955 17.8223C7.11868 17.846 6.79171 17.2982 6.55182 17.1195C6.18742 16.8475 5.7871 16.6382 5.35701 16.4923L5.31514 16.4781C5.14826 16.4221 4.9861 16.3676 4.90855 16.2012C4.88486 16.15 4.92077 16.0904 4.9773 16.0881C6.01324 16.0461 10.2723 17.8903 10.435 18.5083ZM32.0915 10.9401C31.5871 10.8806 31.0696 10.8196 30.5327 10.7571C31.3197 11.9596 30.9828 12.7984 30.0513 13.4951C29.9918 13.5394 29.9323 13.5898 29.8863 13.6479C29.6434 13.9573 29.7001 14.3317 29.7718 14.6533C29.8255 14.8946 30.055 14.8753 30.261 14.858C30.3184 14.8531 30.3741 14.8484 30.4235 14.8496C32.506 14.9016 34.5618 14.638 36.6436 14.3271C36.4313 13.7862 36.3181 13.2774 36.3555 12.7426C36.4468 11.4364 36.445 11.4362 35.1333 11.2914L35.1097 11.2888C34.1216 11.1796 33.1346 11.0632 32.0918 10.9402L32.0915 10.9401ZM38.0787 14.0821C37.6271 14.1363 37.375 13.9125 37.2659 13.4893C37.2164 13.2966 37.2338 13.0953 37.2505 12.9025C37.2637 12.7497 37.2764 12.6023 37.2552 12.4686C37.0909 11.431 37.7364 11.1857 38.4011 10.9332L38.4012 10.9332C38.5004 10.8955 38.6 10.8576 38.6975 10.8169C38.8542 10.7514 39.0112 10.6866 39.1682 10.6219L39.1686 10.6217L39.1689 10.6216L39.169 10.6215C39.7315 10.3895 40.2941 10.1574 40.8403 9.89178C41.2613 9.68704 41.5798 9.74966 41.9449 10.011C42.131 10.1443 42.3196 10.2742 42.5082 10.4042L42.5083 10.4043L42.5083 10.4043C43.0436 10.7731 43.5786 11.1418 44.0559 11.587L44.0609 11.5916C44.2505 11.7683 44.455 11.959 44.0574 12.1317C43.8298 12.2305 43.6026 12.3308 43.3754 12.4312C41.6763 13.1812 39.9762 13.9318 38.0787 14.0821ZM42.3545 5.96189C43.2079 7.91227 42.8823 8.40274 40.2147 9.18579C39.8755 7.8229 39.5195 6.4661 38.7501 5.26286C38.6883 5.16657 38.6626 5.04579 38.6374 4.92755L38.6374 4.9274L38.6374 4.92729L38.6374 4.92715L38.6373 4.92704L38.6373 4.92696C38.6308 4.89624 38.6243 4.8657 38.6172 4.8358C38.4057 3.95114 38.4789 3.85412 39.3622 4.03825C40.0612 4.18415 40.7639 4.19562 41.4646 4.16048C42.0994 4.12915 42.1315 4.34001 41.864 4.83199C41.6948 5.1435 41.5519 5.46864 41.4088 5.79393L41.4088 5.79401L41.4088 5.79411L41.4087 5.7942L41.4087 5.79426C41.3297 5.97384 41.2508 6.15347 41.1673 6.33088C41.0413 6.59904 40.9473 6.87635 41.275 7.04747C41.6392 7.23828 41.7905 6.96954 41.935 6.71299L41.958 6.67236C42.0014 6.59453 42.0334 6.51013 42.0655 6.42546C42.1301 6.25498 42.1952 6.08337 42.3545 5.96189ZM21.9749 9.64197C21.6258 10.2027 21.3354 10.8078 21.0597 11.4227C20.9996 11.5565 20.8631 11.4642 20.7531 11.3897L20.7531 11.3897L20.753 11.3897C20.7261 11.3714 20.7007 11.3543 20.6784 11.3418C20.3663 11.1681 20.0571 10.9892 19.748 10.8104L19.7479 10.8104C19.3867 10.6014 19.0256 10.3925 18.6601 10.192C18.1566 9.91624 18.1818 9.55107 18.4324 9.13012C18.6807 8.71222 19.0581 8.42194 19.4393 8.13698C19.5883 8.0262 19.7334 7.94446 19.8862 8.13621C20.3592 8.73003 21.023 9.04339 21.6864 9.35654L21.7343 9.37916C21.747 9.3852 21.76 9.39103 21.7731 9.39688C21.8722 9.44136 21.9749 9.48736 21.9749 9.64197ZM43.1591 4.56613C43.1629 5.14443 43.1668 5.71589 43.4936 6.35378C43.7314 5.85865 43.7069 5.37526 43.6829 4.90061C43.665 4.54552 43.6472 4.19533 43.7397 3.84877C44.0437 2.70665 43.8076 2.45683 42.5487 2.35982C42.3823 2.34691 42.2158 2.33525 42.0493 2.3236L42.0493 2.3236L42.0492 2.32359L42.0492 2.32359L42.0492 2.32359L42.0491 2.32359L42.0491 2.32358L42.0491 2.32358L42.049 2.32358C41.1124 2.258 40.1781 2.1926 39.2751 1.90525C38.8565 1.77233 38.5785 1.85025 38.5249 2.30785C38.4798 2.68831 38.4821 3.01299 39.0337 3.11613C40.0047 3.2972 40.9749 3.34379 41.9558 3.35907C42.9498 3.37435 43.1529 3.58825 43.1591 4.56613ZM42.8768 9.12194L42.8768 9.12192C43.0774 8.89316 43.2843 8.65734 43.4686 8.40501C43.6704 8.12769 43.8851 8.11624 44.1783 8.21632C44.8915 8.46015 45.5381 8.83332 46.1844 9.20638L46.1846 9.20648L46.1847 9.20657L46.1849 9.20666L46.185 9.20676L46.1852 9.20685L46.1854 9.20695L46.1855 9.20704C46.3164 9.28257 46.4472 9.3581 46.5787 9.43254C46.9476 9.64108 46.8194 9.91459 46.5772 10.0865C46.207 10.3491 45.8167 10.5834 45.4264 10.8177L45.4263 10.8178L45.4259 10.818C45.3032 10.8917 45.1805 10.9654 45.0584 11.0399C44.8776 11.1507 44.748 11.0487 44.6085 10.939L44.594 10.9276C44.0997 10.5409 43.6018 10.1594 43.1433 9.808L43.1431 9.80788C42.9639 9.67053 42.7906 9.53779 42.626 9.41113C42.707 9.31553 42.7913 9.21939 42.8767 9.12196L42.8768 9.12194ZM18.2889 2.85267L18.2882 2.85305C17.9638 3.0276 17.6301 3.20715 17.2822 3.39408C17.5301 3.48533 17.7392 3.63943 17.9353 3.78391C18.2383 4.0072 18.5102 4.20755 18.846 4.11757C19.3732 3.97637 19.8857 3.78287 20.3996 3.5889L20.3996 3.58889C20.8254 3.42812 21.2522 3.26703 21.6888 3.13511C22.0599 3.02281 22.1723 2.09689 21.869 1.95098C21.3189 1.68665 20.7681 1.52316 20.1134 1.87305C19.5161 2.1924 18.9201 2.51307 18.2889 2.85267ZM33.2445 2.1115C33.5469 1.2765 33.9664 0.835692 34.809 0.815828C35.1901 0.80672 35.5666 0.740121 35.9441 0.673341C36.3583 0.600069 36.7737 0.526581 37.1978 0.52858L37.2533 0.528776C37.6567 0.529812 38.0888 0.530921 38.0428 1.07863C38.0053 1.5286 37.8863 2.05268 37.272 2.11609C36.8983 2.15505 36.5142 2.18408 36.1437 2.14054C35.2193 2.03205 34.2964 1.98927 33.2445 2.1115ZM15.0229 6.77396C15.1695 6.8135 15.3242 6.85521 15.4902 6.90144C15.4539 6.71681 15.4177 6.54794 15.3837 6.38924L15.3837 6.38905L15.3836 6.38897C15.3174 6.08022 15.2595 5.80995 15.2252 5.53701C15.0861 4.40711 14.915 4.27877 13.7759 4.52705C13.7171 4.53995 13.6576 4.55165 13.598 4.56338C13.4105 4.60025 13.2219 4.63734 13.0509 4.7127C12.3542 5.02135 12.3687 5.7005 12.439 6.26201C12.4899 6.66855 12.7195 6.56888 12.9514 6.46826C13.0641 6.41931 13.1774 6.37014 13.2709 6.37889L13.298 6.38136C13.5894 6.40792 13.8717 6.43365 14.1533 6.52481C14.4278 6.61354 14.7067 6.68871 15.0229 6.77396ZM29.3947 1.94418C28.6172 2.0053 28.3038 1.63478 28.4537 0.858598C28.4931 0.653619 28.6208 0.655822 28.7477 0.658011L28.7798 0.65844C29.9723 0.667469 31.1509 0.521618 32.3307 0.375616L32.3849 0.3689C32.9273 0.301672 33.1146 0.491134 32.8318 1.00528C32.7956 1.07106 32.7591 1.13671 32.7226 1.20236C32.6375 1.35553 32.5523 1.50873 32.4705 1.66381C32.4025 1.79216 32.2298 2.09468 32.0389 1.95106C31.4745 1.52501 31.0311 1.64728 30.479 1.79954C30.4421 1.80973 30.4046 1.82005 30.3666 1.83035C30.1526 1.88819 29.9266 1.90369 29.7007 1.91918C29.5983 1.9262 29.496 1.93323 29.3947 1.94418ZM21.3651 0.498109C21.2223 0.457619 20.8067 0.388863 20.6569 0.373583C20.3113 0.334303 20.009 0.466608 19.7083 0.598233L19.6455 0.625689C19.4309 0.718856 19.2166 0.812854 19.0024 0.906849L19.0023 0.906865L19.0022 0.906915L19.0022 0.906933C18.0008 1.34627 16.9995 1.78557 15.9624 2.13986C15.9242 2.1529 15.8757 2.15865 15.8255 2.1646C15.6729 2.1827 15.5042 2.20268 15.5606 2.43552C15.6057 2.62269 15.828 2.90764 16.0365 2.90535C16.2558 2.90304 16.4819 2.84804 16.6905 2.77471C17.5698 2.46606 18.3926 2.15514 19.2031 1.70516C19.7715 1.38965 20.5775 1.07108 21.291 1.2911C21.4133 1.32853 21.5119 1.02982 21.5423 0.860224C21.5706 0.701321 21.5402 0.547002 21.3651 0.498109ZM46.7385 7.02109L46.7396 7.02124L46.8573 7.03758C47.314 7.10099 47.3988 7.44402 47.2216 7.74271C47.1925 7.79174 47.1643 7.84877 47.135 7.90829C46.9931 8.1957 46.8226 8.54131 46.3789 8.32485C46.2013 8.23835 46.0259 8.14759 45.8505 8.05686C45.3862 7.81669 44.9224 7.57675 44.4195 7.41651C44.3378 7.39053 44.2346 7.3065 44.217 7.23164C44.1834 7.09335 44.3042 7.02077 44.4202 6.96425C44.6335 6.85992 44.8591 6.85585 45.1487 6.85062C45.2409 6.84896 45.3395 6.84718 45.4462 6.84202C45.7941 6.88999 46.2616 6.95489 46.7385 7.02109ZM46.1036 6.43312C46.2063 6.44391 46.3168 6.45551 46.4392 6.46692C46.4638 6.46482 46.4997 6.47483 46.5411 6.48637C46.6653 6.521 46.8387 6.56934 46.9028 6.34469C46.9807 6.07319 46.7878 5.99306 46.5982 5.91432C46.5461 5.8927 46.4943 5.87118 46.4484 5.84583C46.3088 5.76878 46.1516 5.71161 45.9944 5.65444C45.514 5.47976 45.0336 5.30505 45.0549 4.56314C45.06 4.38197 44.8483 4.37918 44.6787 4.37695C44.6516 4.37659 44.6256 4.37625 44.6018 4.3752C44.3758 4.36452 44.3223 4.50432 44.2786 4.71058C44.0404 5.84429 44.4139 6.33399 45.5782 6.38748C45.7447 6.39545 45.9105 6.41286 46.1036 6.43312Z" fill="#262626"/>
</svg>
