<svg width="120" height="120" viewBox="0 0 120 120" fill="none" xmlns="http://www.w3.org/2000/svg">
<path d="M60 60C51.75 60 44.6875 57.0625 38.8125 51.1875C32.9375 45.3125 30 38.25 30 30C30 21.75 32.9375 14.6875 38.8125 8.8125C44.6875 2.9375 51.75 0 60 0C68.25 0 75.3125 2.9375 81.1875 8.8125C87.0625 14.6875 90 21.75 90 30C90 38.25 87.0625 45.3125 81.1875 51.1875C75.3125 57.0625 68.25 60 60 60ZM0 120V99C0 94.75 1.095 90.8425 3.285 87.2775C5.47 83.7175 8.375 81 12 79.125C19.75 75.25 27.625 72.3425 35.625 70.4025C43.625 68.4675 51.75 67.5 60 67.5C68.25 67.5 76.375 68.4675 84.375 70.4025C92.375 72.3425 100.25 75.25 108 79.125C111.625 81 114.53 83.7175 116.715 87.2775C118.905 90.8425 120 94.75 120 99V120H0Z" fill="#262626"/>
</svg>
