<svg width="24" height="17" viewBox="0 0 24 17" fill="none" xmlns="http://www.w3.org/2000/svg">
<path d="M6.35 11.35L4.25 9.2C5.23333 8.21667 6.38767 7.43767 7.713 6.863C9.03767 6.28767 10.4667 6 12 6C13.5333 6 14.9627 6.29167 16.288 6.875C17.6127 7.45833 18.7667 8.25 19.75 9.25L17.65 11.35C16.9167 10.6167 16.0667 10.0417 15.1 9.625C14.1333 9.20833 13.1 9 12 9C10.9 9 9.86667 9.20833 8.9 9.625C7.93333 10.0417 7.08333 10.6167 6.35 11.35ZM2.1 7.1L0 5C1.53333 3.43333 3.325 2.20833 5.375 1.325C7.425 0.441666 9.63333 0 12 0C14.3667 0 16.575 0.441666 18.625 1.325C20.675 2.20833 22.4667 3.43333 24 5L21.9 7.1C20.6167 5.81667 19.1293 4.81233 17.438 4.087C15.746 3.36233 13.9333 3 12 3C10.0667 3 8.254 3.36233 6.562 4.087C4.87067 4.81233 3.38333 5.81667 2.1 7.1ZM12 17L15.525 13.45C15.075 13 14.55 12.6457 13.95 12.387C13.35 12.129 12.7 12 12 12C11.3 12 10.65 12.129 10.05 12.387C9.45 12.6457 8.925 13 8.475 13.45L12 17Z" fill="#262626"/>
</svg>
