<svg width="120" height="85" viewBox="0 0 120 85" fill="none" xmlns="http://www.w3.org/2000/svg">
<path d="M31.75 56.75L21.25 46C26.1667 41.0833 31.9383 37.1883 38.565 34.315C45.1883 31.4383 52.3333 30 60 30C67.6667 30 74.8133 31.4583 81.44 34.375C88.0633 37.2917 93.8333 41.25 98.75 46.25L88.25 56.75C84.5833 53.0833 80.3333 50.2083 75.5 48.125C70.6667 46.0417 65.5 45 60 45C54.5 45 49.3333 46.0417 44.5 48.125C39.6667 50.2083 35.4167 53.0833 31.75 56.75ZM10.5 35.5L0 25C7.66667 17.1667 16.625 11.0417 26.875 6.625C37.125 2.20833 48.1667 0 60 0C71.8333 0 82.875 2.20833 93.125 6.625C103.375 11.0417 112.333 17.1667 120 25L109.5 35.5C103.083 29.0833 95.6467 24.0617 87.19 20.435C78.73 16.8117 69.6667 15 60 15C50.3333 15 41.27 16.8117 32.81 20.435C24.3533 24.0617 16.9167 29.0833 10.5 35.5ZM60 85L77.625 67.25C75.375 65 72.75 63.2283 69.75 61.935C66.75 60.645 63.5 60 60 60C56.5 60 53.25 60.645 50.25 61.935C47.25 63.2283 44.625 65 42.375 67.25L60 85Z" fill="#262626"/>
</svg>
